<svg width="80" height="79" viewBox="0 0 80 79" fill="none" xmlns="http://www.w3.org/2000/svg">
<path fill-rule="evenodd" clip-rule="evenodd" d="M7.26953 49.2007C3.53385 49.2007 0.499878 52.246 0.499878 55.9959C0.499878 59.7458 3.53385 62.8231 7.26953 62.8231C7.99987 62.8231 8.71844 62.7009 9.40902 62.4704C20.4341 79.4372 42.3106 83.3523 58.3291 74.1696C58.797 73.9011 58.9796 73.2293 58.7121 72.7593C58.4446 72.2895 57.7753 72.1062 57.3071 72.3747C42.2495 81.0066 21.6931 77.4282 11.2291 61.5089C12.9297 60.269 14.0392 58.2596 14.0392 55.9959C14.0392 52.246 11.0055 49.2007 7.26953 49.2007Z" fill="#1DAB87"/>
<path fill-rule="evenodd" clip-rule="evenodd" d="M58.3292 10.962C57.4754 11.0709 57.2184 12.4793 57.978 12.8851C70.0343 20.2635 76.7661 34.7016 73.8161 49.2969C73.4634 49.2367 73.0963 49.2008 72.7305 49.2008C68.9948 49.2008 65.9608 52.2461 65.9608 55.9959C65.9608 59.7458 68.9948 62.8231 72.7305 62.8231C76.4662 62.8231 79.5001 59.7458 79.5001 55.9959C79.5001 53.3462 77.9857 51.0494 75.7641 49.938C79.0026 34.4154 71.8758 18.9827 59.0318 11.1223C58.8613 11.0135 58.6584 10.9569 58.4567 10.962C58.4138 10.9593 58.3721 10.9593 58.3292 10.962Z" fill="#1DAB87"/>
<path fill-rule="evenodd" clip-rule="evenodd" d="M39.9999 0C36.3979 0 33.4695 2.84566 33.2624 6.41051C17.8241 9.27751 6.57508 21.5396 4.01252 36.0912C3.98313 36.2264 3.98128 36.3661 4.00708 36.502C4.03288 36.6379 4.08579 36.7671 4.16264 36.882C4.23949 36.9968 4.33868 37.0948 4.45426 37.1702C4.56983 37.2455 4.6994 37.2967 4.83516 37.3205C4.97092 37.3443 5.11008 37.3402 5.24426 37.3087C5.37843 37.2771 5.50486 37.2186 5.61593 37.1367C5.727 37.0548 5.82042 36.9512 5.89058 36.8321C5.96073 36.713 6.00616 36.581 6.02414 36.4438C8.43115 22.776 18.9409 11.2438 33.4218 8.4619C34.1639 11.4113 36.8355 13.5903 39.9999 13.5903C43.7356 13.5903 46.7696 10.545 46.7696 6.79515C46.7696 3.04527 43.7356 0 39.9999 0Z" fill="#1DAB87"/>
</svg>
