<svg width="360" height="120" viewBox="0 0 360 120" fill="none" xmlns="http://www.w3.org/2000/svg">
<g clip-path="url(#clip0_90_120)">
<rect width="360" height="120" rx="36" fill="#185BFF"/>
<g opacity="0.5" clip-path="url(#clip1_90_120)">
<path d="M70.5685 256.735C70.5682 256.735 70.568 256.735 70.5677 256.735L70.4031 256.365M70.5685 256.735L70.4032 256.365M70.5685 256.735C70.6467 256.7 70.725 256.665 70.8032 256.631L70.8429 256.72M70.5685 256.735L141.354 208.227M70.4031 256.365C70.4031 256.365 70.4032 256.365 70.4032 256.365M70.4031 256.365L70.3647 256.278M70.4031 256.365C67.4406 257.635 64.5878 258.787 61.8351 259.823C58.6546 261.041 55.5844 262.092 52.6101 262.981C50.9492 263.488 49.3267 263.946 47.74 264.357C47.6257 264.386 47.5115 264.415 47.3975 264.443L47.3865 264.4L70.3647 256.278M70.4032 256.365L70.3647 256.278M70.4032 256.365C70.4829 256.33 70.5626 256.296 70.6425 256.262C80.5653 251.854 91.1518 246.562 103.696 239.318C103.696 239.317 103.696 239.317 103.696 239.317C103.752 239.285 103.807 239.253 103.863 239.221C109.075 236.2 114.075 233.242 118.656 230.407C118.656 230.407 118.656 230.407 118.656 230.407C118.705 230.377 118.755 230.346 118.804 230.316C124.802 226.584 131.478 222.204 136.801 216.387C136.803 216.384 136.806 216.382 136.808 216.379L136.699 216.275M70.3647 256.278L103.635 239.212C108.906 236.158 113.962 233.166 118.589 230.299C124.591 226.565 131.4 222.013 136.699 216.275M136.699 216.275L136.81 216.377C138.355 214.533 140.05 212.356 140.691 209.624C140.712 209.516 140.731 209.407 140.748 209.297L140.702 209.288M136.699 216.275C138.39 214.501 140.169 212.235 140.702 209.288M140.702 209.288L140.749 209.296C140.804 208.939 140.839 208.571 140.855 208.196C140.822 208.567 140.771 208.932 140.702 209.288ZM141.354 208.227C141.32 208.619 141.267 209.004 141.193 209.381C141.173 209.494 141.151 209.606 141.127 209.717L141.18 209.729M141.354 208.227C141.332 208.742 141.275 209.244 141.18 209.729M141.18 209.729L141.126 209.719C140.497 212.643 138.71 214.888 137.066 216.615L137.177 216.716M141.18 209.729C140.509 212.601 138.729 214.866 137.177 216.716M137.177 216.716L137.062 216.619C131.758 222.361 124.969 226.914 119 230.632L119.067 230.741M137.177 216.716C131.803 222.593 125.069 227.007 119.067 230.741M119.067 230.741L119 230.632C118.951 230.663 118.902 230.693 118.853 230.724L118.852 230.724C114.268 233.564 109.265 236.526 104.052 239.548L104.113 239.654M119.067 230.741C114.44 233.607 109.384 236.599 104.113 239.654M104.113 239.654L104.052 239.548C103.997 239.581 103.941 239.613 103.886 239.645L103.885 239.645C91.3366 246.9 80.7365 252.209 70.8043 256.63L70.8429 256.72M104.113 239.654C91.4799 246.957 80.827 252.285 70.8429 256.72" fill="white" stroke="white"/>
<mask id="path-3-inside-1_90_120" fill="white">
<path d="M-66.0431 217.813C-68.0918 213.993 -68.9045 209.23 -68.092 204.456C-67.2795 199.682 -65.069 195.313 -63.2374 191.637C-61.1915 187.897 -59.1456 184.158 -56.8097 180.218C-54.1708 175.723 -51.5318 171.229 -48.8301 166.949C-38.3002 149.677 -28.4392 133.299 -25.2153 114.909C-25.1264 114.417 -25.0376 113.926 -25.0245 113.573C-24.4655 109.92 -23.9064 106.267 -21.6724 103.171C-17.267 96.764 -10.0265 99.6459 -3.51748 103.207C3.40696 106.996 11.3897 110.824 19.7433 110.356C21.0916 110.194 22.5784 110.107 23.7882 109.87C25.565 109.582 27.4803 109.37 29.4583 109.373C38.7056 109.574 47.352 116.464 54.1354 122.155C78.4129 141.916 104.632 160.761 132.113 177.956C133.082 178.486 133.976 179.155 134.945 179.686C137.085 181.036 139.364 182.463 141.642 183.89C143.921 185.316 146.262 186.957 148.528 188.737C150.516 190.364 152.152 191.979 153.573 193.657C157.158 197.957 158.802 203.176 157.801 207.307C157.117 210.531 154.972 213.136 153.054 215.326C147.086 221.958 139.558 226.836 132.396 231.375C126.974 234.707 121.262 238.24 115.488 241.558C100.976 249.993 88.9484 256.189 77.7415 261.214C68.0475 265.447 59.5267 268.523 51.3978 270.553C41.4163 273.01 32.1926 274.081 22.9583 273.527C18.9396 273.308 13.6614 272.759 8.87699 270.322C3.40016 267.505 -0.587336 262.624 -4.43634 257.819C-5.71934 256.217 -7.00234 254.616 -8.36112 253.152C-12.1605 248.914 -16.4014 245.154 -21.3609 241.721C-26.1819 238.363 -31.2432 235.774 -36.545 233.953C-38.7739 233.093 -41.2928 232.435 -43.4589 231.789C-46.2548 230.98 -49.1892 230.094 -52.1105 228.855C-57.6762 226.53 -61.8047 223.551 -64.4962 219.919C-64.8359 219.553 -65.0998 219.049 -65.301 218.759C-65.7165 218.532 -65.9177 218.242 -66.0431 217.813ZM19.529 110.418C11.1754 110.886 3.19271 107.059 -3.73173 103.27C-10.2407 99.7086 -17.4813 96.8267 -21.8866 103.234C-24.0449 106.192 -24.6797 109.983 -25.163 113.498C-25.2519 113.989 -25.3407 114.48 -25.3538 114.833C-28.5777 133.223 -38.4387 149.601 -48.9685 166.873C-51.5318 171.229 -54.3092 175.648 -56.9482 180.142C-59.2084 183.944 -61.33 187.822 -63.3759 191.561C-65.4217 195.3 -67.4937 199.745 -68.2305 204.38C-69.043 209.154 -68.2303 213.917 -66.1816 217.737C-65.9804 218.028 -65.855 218.456 -65.6538 218.746C-65.3141 219.112 -65.1886 219.54 -64.8489 219.906C-62.1575 223.538 -58.029 226.517 -52.4633 228.842C-49.6805 230.005 -46.7461 230.891 -43.8117 231.776C-41.507 232.498 -39.1266 233.08 -36.8977 233.94C-31.6718 235.899 -26.6104 238.489 -21.7136 241.708C-16.8926 245.065 -12.5132 248.901 -8.71386 253.139C-7.35509 254.602 -6.07209 256.204 -4.78909 257.806C-0.940083 262.611 3.0474 267.492 8.52424 270.309C13.1701 272.671 18.4483 273.219 22.6056 273.514C31.7013 273.992 41.0635 272.997 50.9065 270.464C59.0354 268.434 67.5562 265.358 77.2502 261.125C88.5956 256.176 100.699 249.842 114.997 241.47C120.847 238.012 126.483 234.618 131.905 231.286C139.067 226.748 146.671 221.73 152.563 215.237C154.481 213.047 156.55 210.581 157.31 207.218C158.172 203.011 156.591 198.007 153.006 193.706C151.585 192.029 149.949 190.414 147.961 188.786C145.695 187.007 143.354 185.366 141.075 183.939C138.935 182.588 136.657 181.162 134.378 179.735C133.409 179.205 132.515 178.536 131.546 178.005C104.065 160.81 77.8459 141.966 53.5684 122.205C46.7092 116.652 38.1386 109.624 28.8913 109.423C26.9132 109.42 25.1364 109.708 23.2211 109.919C22.3641 110.17 21.0158 110.332 19.529 110.418Z"/>
</mask>
<path d="M-66.0431 217.813C-68.0918 213.993 -68.9045 209.23 -68.092 204.456C-67.2795 199.682 -65.069 195.313 -63.2374 191.637C-61.1915 187.897 -59.1456 184.158 -56.8097 180.218C-54.1708 175.723 -51.5318 171.229 -48.8301 166.949C-38.3002 149.677 -28.4392 133.299 -25.2153 114.909C-25.1264 114.417 -25.0376 113.926 -25.0245 113.573C-24.4655 109.92 -23.9064 106.267 -21.6724 103.171C-17.267 96.764 -10.0265 99.6459 -3.51748 103.207C3.40696 106.996 11.3897 110.824 19.7433 110.356C21.0916 110.194 22.5784 110.107 23.7882 109.87C25.565 109.582 27.4803 109.37 29.4583 109.373C38.7056 109.574 47.352 116.464 54.1354 122.155C78.4129 141.916 104.632 160.761 132.113 177.956C133.082 178.486 133.976 179.155 134.945 179.686C137.085 181.036 139.364 182.463 141.642 183.89C143.921 185.316 146.262 186.957 148.528 188.737C150.516 190.364 152.152 191.979 153.573 193.657C157.158 197.957 158.802 203.176 157.801 207.307C157.117 210.531 154.972 213.136 153.054 215.326C147.086 221.958 139.558 226.836 132.396 231.375C126.974 234.707 121.262 238.24 115.488 241.558C100.976 249.993 88.9484 256.189 77.7415 261.214C68.0475 265.447 59.5267 268.523 51.3978 270.553C41.4163 273.01 32.1926 274.081 22.9583 273.527C18.9396 273.308 13.6614 272.759 8.87699 270.322C3.40016 267.505 -0.587336 262.624 -4.43634 257.819C-5.71934 256.217 -7.00234 254.616 -8.36112 253.152C-12.1605 248.914 -16.4014 245.154 -21.3609 241.721C-26.1819 238.363 -31.2432 235.774 -36.545 233.953C-38.7739 233.093 -41.2928 232.435 -43.4589 231.789C-46.2548 230.98 -49.1892 230.094 -52.1105 228.855C-57.6762 226.53 -61.8047 223.551 -64.4962 219.919C-64.8359 219.553 -65.0998 219.049 -65.301 218.759C-65.7165 218.532 -65.9177 218.242 -66.0431 217.813ZM19.529 110.418C11.1754 110.886 3.19271 107.059 -3.73173 103.27C-10.2407 99.7086 -17.4813 96.8267 -21.8866 103.234C-24.0449 106.192 -24.6797 109.983 -25.163 113.498C-25.2519 113.989 -25.3407 114.48 -25.3538 114.833C-28.5777 133.223 -38.4387 149.601 -48.9685 166.873C-51.5318 171.229 -54.3092 175.648 -56.9482 180.142C-59.2084 183.944 -61.33 187.822 -63.3759 191.561C-65.4217 195.3 -67.4937 199.745 -68.2305 204.38C-69.043 209.154 -68.2303 213.917 -66.1816 217.737C-65.9804 218.028 -65.855 218.456 -65.6538 218.746C-65.3141 219.112 -65.1886 219.54 -64.8489 219.906C-62.1575 223.538 -58.029 226.517 -52.4633 228.842C-49.6805 230.005 -46.7461 230.891 -43.8117 231.776C-41.507 232.498 -39.1266 233.08 -36.8977 233.94C-31.6718 235.899 -26.6104 238.489 -21.7136 241.708C-16.8926 245.065 -12.5132 248.901 -8.71386 253.139C-7.35509 254.602 -6.07209 256.204 -4.78909 257.806C-0.940083 262.611 3.0474 267.492 8.52424 270.309C13.1701 272.671 18.4483 273.219 22.6056 273.514C31.7013 273.992 41.0635 272.997 50.9065 270.464C59.0354 268.434 67.5562 265.358 77.2502 261.125C88.5956 256.176 100.699 249.842 114.997 241.47C120.847 238.012 126.483 234.618 131.905 231.286C139.067 226.748 146.671 221.73 152.563 215.237C154.481 213.047 156.55 210.581 157.31 207.218C158.172 203.011 156.591 198.007 153.006 193.706C151.585 192.029 149.949 190.414 147.961 188.786C145.695 187.007 143.354 185.366 141.075 183.939C138.935 182.588 136.657 181.162 134.378 179.735C133.409 179.205 132.515 178.536 131.546 178.005C104.065 160.81 77.8459 141.966 53.5684 122.205C46.7092 116.652 38.1386 109.624 28.8913 109.423C26.9132 109.42 25.1364 109.708 23.2211 109.919C22.3641 110.17 21.0158 110.332 19.529 110.418Z" fill="white"/>
<path d="M-66.0431 217.813L-65.0834 217.532L-65.1126 217.432L-65.1618 217.341L-66.0431 217.813ZM-63.2374 191.637L-64.1147 191.157L-64.1239 191.173L-64.1325 191.191L-63.2374 191.637ZM-56.8097 180.218L-55.9495 180.728L-55.9474 180.724L-56.8097 180.218ZM-48.8301 166.949L-47.9844 167.483L-47.9803 167.476L-47.9762 167.469L-48.8301 166.949ZM-25.2153 114.909L-26.1993 114.731L-26.2002 114.736L-25.2153 114.909ZM-25.0245 113.573L-26.013 113.422L-26.0217 113.479L-26.0239 113.536L-25.0245 113.573ZM-21.6724 103.171L-20.8614 103.756L-20.8548 103.747L-20.8483 103.738L-21.6724 103.171ZM19.7433 110.356L19.7992 111.354L19.831 111.352L19.8626 111.349L19.7433 110.356ZM23.7882 109.87L23.6284 108.882L23.6118 108.885L23.5953 108.888L23.7882 109.87ZM29.4583 109.373L29.48 108.373L29.4698 108.373L29.4596 108.373L29.4583 109.373ZM54.1354 122.155L53.4927 122.921L53.4984 122.926L53.5041 122.931L54.1354 122.155ZM132.113 177.956L131.582 178.804L131.607 178.819L131.633 178.833L132.113 177.956ZM134.945 179.686L135.479 178.84L135.453 178.823L135.425 178.808L134.945 179.686ZM148.528 188.737L149.161 187.963L149.153 187.956L149.145 187.95L148.528 188.737ZM153.573 193.657L154.342 193.016L154.336 193.01L153.573 193.657ZM157.801 207.307L156.83 207.071L156.826 207.085L156.823 207.099L157.801 207.307ZM153.054 215.326L153.797 215.995L153.806 215.985L153.054 215.326ZM132.396 231.375L132.92 232.227L132.931 232.22L132.396 231.375ZM115.488 241.558L114.99 240.691L114.985 240.694L115.488 241.558ZM77.7415 261.214L78.1417 262.13L78.1506 262.126L77.7415 261.214ZM51.3978 270.553L51.6367 271.524L51.6401 271.523L51.3978 270.553ZM22.9583 273.527L23.0182 272.529L23.0128 272.529L22.9583 273.527ZM8.87699 270.322L8.41964 271.211L8.423 271.213L8.87699 270.322ZM-4.43634 257.819L-3.65586 257.194L-4.43634 257.819ZM-8.36112 253.152L-9.10572 253.82L-9.09987 253.826L-9.0939 253.833L-8.36112 253.152ZM-21.3609 241.721L-21.9324 242.541L-21.9301 242.543L-21.3609 241.721ZM-36.545 233.953L-36.9048 234.886L-36.8875 234.893L-36.8699 234.899L-36.545 233.953ZM-43.4589 231.789L-43.1734 230.831L-43.1807 230.829L-43.4589 231.789ZM-52.1105 228.855L-51.7202 227.935L-51.725 227.933L-52.1105 228.855ZM-64.4962 219.919L-63.6927 219.324L-63.7257 219.279L-63.7634 219.239L-64.4962 219.919ZM-65.301 218.759L-64.4794 218.189L-64.6139 217.995L-64.821 217.882L-65.301 218.759ZM19.529 110.418L19.585 111.417L19.587 111.417L19.529 110.418ZM-21.8866 103.234L-21.0788 103.823L-21.0705 103.812L-21.0626 103.8L-21.8866 103.234ZM-25.163 113.498L-24.179 113.675L-24.1752 113.655L-24.1724 113.634L-25.163 113.498ZM-25.3538 114.833L-24.3688 115.005L-24.357 114.938L-24.3544 114.87L-25.3538 114.833ZM-48.9685 166.873L-49.8224 166.353L-49.8264 166.359L-49.8304 166.366L-48.9685 166.873ZM-56.9482 180.142L-56.0886 180.653L-56.0859 180.648L-56.9482 180.142ZM-68.2305 204.38L-67.2446 204.548L-67.2429 204.537L-68.2305 204.38ZM-66.1816 217.737L-67.0629 218.21L-67.0358 218.26L-67.0032 218.307L-66.1816 217.737ZM-65.6538 218.746L-66.4754 219.316L-66.4349 219.374L-66.3865 219.427L-65.6538 218.746ZM-64.8489 219.906L-64.0455 219.311L-64.0785 219.266L-64.1162 219.226L-64.8489 219.906ZM-43.8117 231.776L-43.5131 230.822L-43.5227 230.819L-43.8117 231.776ZM-36.8977 233.94L-37.2576 234.873L-37.2488 234.876L-36.8977 233.94ZM-21.7136 241.708L-21.1421 240.887L-21.1531 240.88L-21.1643 240.872L-21.7136 241.708ZM-8.71386 253.139L-9.45846 253.807L-9.45261 253.813L-9.44664 253.82L-8.71386 253.139ZM-4.78909 257.806L-4.0086 257.181L-4.78909 257.806ZM8.52424 270.309L8.06688 271.198L8.07104 271.2L8.52424 270.309ZM22.6056 273.514L22.5348 274.512L22.5439 274.513L22.5531 274.513L22.6056 273.514ZM50.9065 270.464L50.6642 269.494L50.6574 269.496L50.9065 270.464ZM77.2502 261.125L76.8504 260.209L76.85 260.209L77.2502 261.125ZM114.997 241.47L115.502 242.332L115.505 242.33L114.997 241.47ZM131.905 231.286L132.429 232.139L132.44 232.131L131.905 231.286ZM152.563 215.237L153.303 215.909L153.309 215.903L153.315 215.896L152.563 215.237ZM157.31 207.218L158.286 207.438L158.288 207.429L158.29 207.419L157.31 207.218ZM153.006 193.706L153.775 193.066L153.769 193.06L153.006 193.706ZM147.961 188.786L148.594 188.012L148.586 188.006L148.578 188L147.961 188.786ZM141.075 183.939L140.542 184.785L140.545 184.787L141.075 183.939ZM134.378 179.735L134.909 178.888L134.884 178.872L134.858 178.858L134.378 179.735ZM131.546 178.005L131.015 178.853L131.04 178.869L131.066 178.883L131.546 178.005ZM53.5684 122.205L54.1997 121.429L54.1976 121.428L53.5684 122.205ZM28.8913 109.423L28.913 108.423L28.9028 108.423L28.8926 108.423L28.8913 109.423ZM23.2211 109.919L23.1113 108.925L23.0243 108.935L22.9402 108.96L23.2211 109.919ZM-65.1618 217.341C-67.102 213.723 -67.8826 209.186 -67.1062 204.624L-69.0778 204.288C-69.9264 209.274 -69.0815 214.263 -66.9244 218.286L-65.1618 217.341ZM-67.1062 204.624C-66.3227 200.02 -64.1863 195.784 -62.3423 192.082L-64.1325 191.191C-65.9517 194.842 -68.2362 199.343 -69.0778 204.288L-67.1062 204.624ZM-62.3601 192.117C-60.3133 188.376 -58.2753 184.651 -55.9495 180.728L-57.67 179.708C-60.0159 183.665 -62.0697 187.419 -64.1147 191.157L-62.3601 192.117ZM-55.9474 180.724C-53.3069 176.227 -50.6761 171.747 -47.9844 167.483L-49.6757 166.415C-52.3875 170.711 -55.0346 175.22 -57.6721 179.711L-55.9474 180.724ZM-47.9762 167.469C-37.4646 150.227 -27.4924 133.689 -24.2303 115.081L-26.2002 114.736C-29.386 132.908 -39.1358 149.126 -49.6839 166.428L-47.9762 167.469ZM-24.2312 115.086C-24.1476 114.624 -24.0415 114.051 -24.0252 113.61L-26.0239 113.536C-26.0337 113.801 -26.1052 114.21 -26.1993 114.731L-24.2312 115.086ZM-24.0361 113.725C-23.4708 110.032 -22.9318 106.626 -20.8614 103.756L-22.4833 102.586C-24.881 105.909 -25.4601 109.809 -26.013 113.422L-24.0361 113.725ZM-20.8483 103.738C-19.844 102.277 -18.7127 101.391 -17.5125 100.898C-16.3049 100.402 -14.961 100.276 -13.4979 100.444C-10.5343 100.785 -7.24663 102.307 -3.99747 104.084L-3.03749 102.33C-6.2973 100.546 -9.8844 98.8465 -13.2696 98.4575C-14.9811 98.2609 -16.6801 98.3937 -18.2725 99.0479C-19.8723 99.7052 -21.298 100.862 -22.4964 102.604L-20.8483 103.738ZM-3.99747 104.084C2.92223 107.871 11.1319 111.84 19.7992 111.354L19.6874 109.357C11.6475 109.808 3.8917 106.121 -3.03749 102.33L-3.99747 104.084ZM19.8626 111.349C21.1131 111.198 22.7273 111.097 23.981 110.851L23.5953 108.888C22.4294 109.118 21.0701 109.189 19.624 109.363L19.8626 111.349ZM23.9479 110.857C25.6908 110.575 27.5495 110.371 29.457 110.373L29.4596 108.373C27.411 108.37 25.4391 108.59 23.6284 108.882L23.9479 110.857ZM29.4365 110.373C33.8221 110.468 38.1239 112.153 42.2124 114.567C46.2997 116.979 50.1015 120.076 53.4927 122.921L54.7781 121.389C51.3859 118.543 47.4728 115.349 43.2292 112.844C38.9868 110.34 34.3418 108.479 29.48 108.373L29.4365 110.373ZM53.5041 122.931C77.8132 142.718 104.066 161.586 131.582 178.804L132.643 177.108C105.198 159.935 79.0126 141.115 54.7667 121.38L53.5041 122.931ZM131.633 178.833C132.081 179.078 132.517 179.358 132.988 179.662C133.448 179.958 133.944 180.278 134.465 180.563L135.425 178.808C134.977 178.563 134.541 178.283 134.07 177.98C133.61 177.683 133.114 177.364 132.593 177.079L131.633 178.833ZM134.411 180.531C136.553 181.883 138.833 183.311 141.112 184.737L142.173 183.042C139.894 181.615 137.617 180.19 135.479 178.84L134.411 180.531ZM141.112 184.737C143.36 186.145 145.672 187.765 147.91 189.523L149.145 187.95C146.852 186.149 144.482 184.488 142.173 183.042L141.112 184.737ZM147.894 189.51C149.839 191.102 151.43 192.675 152.81 194.303L154.336 193.01C152.873 191.284 151.194 189.627 149.161 187.963L147.894 189.51ZM152.805 194.297C156.262 198.444 157.732 203.346 156.83 207.071L158.773 207.542C159.872 203.005 158.054 197.471 154.342 193.016L152.805 194.297ZM156.823 207.099C156.199 210.038 154.229 212.466 152.302 214.667L153.806 215.985C155.714 213.806 158.035 211.024 158.78 207.514L156.823 207.099ZM152.311 214.657C146.447 221.173 139.033 225.985 131.861 230.531L132.931 232.22C140.083 227.688 147.725 222.743 153.797 215.995L152.311 214.657ZM131.873 230.523C126.446 233.858 120.749 237.382 114.99 240.691L115.986 242.425C121.776 239.098 127.502 235.556 132.92 232.227L131.873 230.523ZM114.985 240.694C100.497 249.115 88.5015 255.293 77.3323 260.301L78.1506 262.126C89.3953 257.085 101.454 250.872 115.99 242.423L114.985 240.694ZM77.3413 260.298C67.6799 264.516 59.2138 267.57 51.1554 269.583L51.6401 271.523C59.8395 269.475 68.415 266.378 78.1416 262.13L77.3413 260.298ZM51.1588 269.582C41.2525 272.02 32.1312 273.076 23.0182 272.529L22.8985 274.526C32.2539 275.087 41.5801 273.999 51.6367 271.524L51.1588 269.582ZM23.0128 272.529C19.0199 272.311 13.9192 271.769 9.33099 269.431L8.423 271.213C13.4035 273.75 18.8592 274.305 22.9038 274.526L23.0128 272.529ZM9.33434 269.432C4.07686 266.729 0.213463 262.024 -3.65586 257.194L-5.21682 258.444C-1.38814 263.224 2.72345 268.282 8.41964 271.211L9.33434 269.432ZM-3.65586 257.194C-4.93457 255.597 -6.24039 253.966 -7.62834 252.472L-9.0939 253.833C-7.7643 255.265 -6.50412 256.837 -5.21682 258.444L-3.65586 257.194ZM-7.61652 252.485C-11.4685 248.188 -15.7684 244.376 -20.7917 240.899L-21.9301 242.543C-17.0344 245.932 -12.8525 249.64 -9.10572 253.82L-7.61652 252.485ZM-20.7894 240.9C-25.6827 237.492 -30.8266 234.86 -36.2201 233.007L-36.8699 234.899C-31.6598 236.688 -26.681 239.234 -21.9324 242.541L-20.7894 240.9ZM-36.1852 233.02C-38.4629 232.141 -41.0546 231.462 -43.1734 230.831L-43.7445 232.748C-41.5309 233.407 -39.0848 234.045 -36.9048 234.886L-36.1852 233.02ZM-43.1807 230.829C-45.9737 230.02 -48.8583 229.148 -51.7202 227.935L-52.5009 229.776C-49.5202 231.04 -46.536 231.939 -43.7372 232.75L-43.1807 230.829ZM-51.725 227.933C-57.1783 225.654 -61.1387 222.77 -63.6927 219.324L-65.2996 220.515C-62.4708 224.332 -58.1741 227.406 -52.4961 229.778L-51.725 227.933ZM-63.7634 219.239C-63.8719 219.122 -63.9848 218.964 -64.1091 218.77C-64.2051 218.621 -64.3695 218.347 -64.4794 218.189L-66.1226 219.329C-66.0313 219.461 -65.9631 219.585 -65.792 219.851C-65.6491 220.074 -65.4601 220.351 -65.229 220.6L-63.7634 219.239ZM-64.821 217.882C-64.9264 217.824 -64.9659 217.781 -64.9859 217.755C-65.0088 217.725 -65.0441 217.666 -65.0834 217.532L-67.0028 218.094C-66.9167 218.389 -66.7887 218.689 -66.5757 218.968C-66.3599 219.251 -66.0911 219.467 -65.781 219.636L-64.821 217.882ZM19.4731 109.42C11.4332 109.87 3.67744 106.184 -3.25174 102.393L-4.21173 104.147C2.70797 107.933 10.9176 111.902 19.585 111.417L19.4731 109.42ZM-3.25174 102.393C-6.51156 100.609 -10.0987 98.9092 -13.4839 98.5202C-15.1953 98.3236 -16.8943 98.4564 -18.4868 99.1106C-20.0866 99.7679 -21.5123 100.924 -22.7106 102.667L-21.0626 103.8C-20.0583 102.34 -18.9269 101.454 -17.7267 100.961C-16.5192 100.464 -15.1752 100.339 -13.7122 100.507C-10.7486 100.848 -7.46089 102.369 -4.21173 104.147L-3.25174 102.393ZM-22.6944 102.644C-25.0206 105.832 -25.6735 109.869 -26.1537 113.361L-24.1724 113.634C-23.686 110.097 -23.0691 106.551 -21.0788 103.823L-22.6944 102.644ZM-26.1471 113.32C-26.2307 113.782 -26.3368 114.355 -26.3531 114.796L-24.3544 114.87C-24.3446 114.605 -24.2731 114.196 -24.179 113.675L-26.1471 113.32ZM-26.3387 114.66C-29.5245 132.832 -39.2743 149.051 -49.8224 166.353L-48.1147 167.394C-37.6031 150.152 -27.6309 133.613 -24.3688 115.005L-26.3387 114.66ZM-49.8304 166.366C-51.1076 168.536 -52.4389 170.724 -53.7844 172.936C-55.1285 175.146 -56.4866 177.381 -57.8106 179.636L-56.0859 180.648C-54.7709 178.409 -53.4207 176.187 -52.0756 173.975C-50.7318 171.766 -49.3927 169.566 -48.1067 167.38L-49.8304 166.366ZM-57.8078 179.631C-60.0786 183.451 -62.2086 187.344 -64.2531 191.081L-62.4986 192.041C-60.4514 188.299 -58.3382 184.437 -56.0887 180.653L-57.8078 179.631ZM-64.2531 191.081C-66.3148 194.849 -68.4539 199.415 -69.2181 204.223L-67.2429 204.537C-66.5335 200.074 -64.5286 195.751 -62.4986 192.041L-64.2531 191.081ZM-69.2163 204.212C-70.0649 209.198 -69.22 214.188 -67.0629 218.21L-65.3003 217.265C-67.2405 213.647 -68.0211 209.11 -67.2446 204.548L-69.2163 204.212ZM-67.0032 218.307C-66.964 218.364 -66.9191 218.455 -66.828 218.656C-66.7558 218.814 -66.6373 219.083 -66.4754 219.316L-64.8321 218.176C-64.8714 218.119 -64.9162 218.028 -65.0073 217.828C-65.0795 217.669 -65.198 217.401 -65.36 217.167L-67.0032 218.307ZM-66.3865 219.427C-66.3023 219.517 -66.2367 219.622 -66.1143 219.831C-66.0041 220.02 -65.8371 220.312 -65.5817 220.587L-64.1162 219.226C-64.2004 219.135 -64.266 219.03 -64.3884 218.821C-64.4986 218.633 -64.6656 218.341 -64.921 218.066L-66.3865 219.427ZM-65.6524 220.502C-62.8235 224.319 -58.5268 227.393 -52.8488 229.765L-52.0778 227.92C-57.5311 225.641 -61.4915 222.757 -64.0455 219.311L-65.6524 220.502ZM-52.8488 229.765C-50.0105 230.951 -47.0262 231.851 -44.1007 232.734L-43.5227 230.819C-46.466 229.931 -49.3504 229.059 -52.0778 227.92L-52.8488 229.765ZM-44.1103 232.731C-41.7187 233.479 -39.451 234.027 -37.2576 234.873L-36.5379 233.007C-38.8022 232.134 -41.2953 231.516 -43.5131 230.822L-44.1103 232.731ZM-37.2488 234.876C-32.0959 236.808 -27.1007 239.363 -22.2629 242.543L-21.1643 240.872C-26.1201 237.614 -31.2477 234.99 -36.5466 233.003L-37.2488 234.876ZM-22.2851 242.528C-17.5238 245.844 -13.2033 249.629 -9.45846 253.807L-7.96926 252.472C-11.8232 248.173 -16.2614 244.286 -21.1421 240.887L-22.2851 242.528ZM-9.44664 253.82C-8.11704 255.252 -6.85687 256.824 -5.56957 258.431L-4.0086 257.181C-5.28732 255.584 -6.59314 253.953 -7.98108 252.459L-9.44664 253.82ZM-5.56957 258.431C-1.74088 263.211 2.37069 268.268 8.06689 271.198L8.98159 269.419C3.72411 266.715 -0.139277 262.011 -4.0086 257.181L-5.56957 258.431ZM8.07104 271.2C12.9131 273.662 18.3724 274.216 22.5348 274.512L22.6764 272.517C18.5243 272.222 13.4272 271.68 8.97744 269.417L8.07104 271.2ZM22.5531 274.513C31.76 274.997 41.2241 273.988 51.1557 271.433L50.6574 269.496C40.903 272.005 31.6426 272.988 22.6581 272.516L22.5531 274.513ZM51.1489 271.435C59.3482 269.387 67.9238 266.289 77.6504 262.042L76.85 260.209C67.1887 264.428 58.7226 267.481 50.6642 269.494L51.1489 271.435ZM77.6501 262.042C89.0429 257.072 101.183 250.717 115.502 242.332L114.491 240.607C100.215 248.966 88.1483 255.28 76.8504 260.209L77.6501 262.042ZM115.505 242.33C121.36 238.871 127.001 235.473 132.428 232.138L131.381 230.434C125.965 233.763 120.334 237.154 114.488 240.609L115.505 242.33ZM132.44 232.131C139.597 227.596 147.309 222.515 153.303 215.909L151.822 214.565C146.032 220.946 138.537 225.899 131.37 230.442L132.44 232.131ZM153.315 215.896C155.227 213.713 157.463 211.076 158.286 207.438L156.335 206.997C155.637 210.086 153.734 212.382 151.81 214.578L153.315 215.896ZM158.29 207.419C159.23 202.831 157.493 197.526 153.775 193.066L152.238 194.347C155.69 198.488 157.115 203.191 156.331 207.017L158.29 207.419ZM153.769 193.06C152.306 191.333 150.627 189.676 148.594 188.012L147.327 189.56C149.271 191.152 150.863 192.724 152.243 194.353L153.769 193.06ZM148.578 188C146.285 186.199 143.915 184.537 141.606 183.092L140.545 184.787C142.793 186.195 145.105 187.815 147.343 189.573L148.578 188ZM141.609 183.094C139.467 181.742 137.187 180.314 134.909 178.888L133.848 180.583C136.126 182.01 138.403 183.435 140.542 184.785L141.609 183.094ZM134.858 178.858C134.41 178.613 133.974 178.333 133.503 178.029C133.043 177.733 132.547 177.413 132.026 177.128L131.066 178.883C131.514 179.128 131.95 179.408 132.421 179.711C132.881 180.008 133.377 180.327 133.898 180.612L134.858 178.858ZM132.076 177.158C104.631 159.985 78.4456 141.165 54.1997 121.429L52.9371 122.98C77.2462 142.767 103.499 161.636 131.015 178.853L132.076 177.158ZM54.1976 121.428C50.7799 118.661 46.866 115.468 42.6372 112.948C38.4078 110.428 33.7797 108.529 28.913 108.423L28.8695 110.422C33.2502 110.518 37.531 112.233 41.6135 114.666C45.6967 117.099 49.4977 120.196 52.9392 122.982L54.1976 121.428ZM28.8926 108.423C26.8405 108.42 24.9661 108.72 23.1113 108.925L23.331 110.913C25.3068 110.695 26.986 110.42 28.89 110.423L28.8926 108.423ZM22.9402 108.96C22.199 109.177 20.947 109.335 19.4711 109.42L19.587 111.417C21.0846 111.33 22.5292 111.164 23.5021 110.879L22.9402 108.96Z" fill="white" mask="url(#path-3-inside-1_90_120)"/>
<path d="M126.724 243.387L126.861 243.621C126.908 243.594 126.954 243.566 127.001 243.539C133.31 239.844 139.695 236.013 145.809 232.032L145.662 231.796M126.724 243.387C126.77 243.36 126.817 243.333 126.863 243.306C126.863 243.306 126.863 243.305 126.864 243.305C133.173 239.61 139.554 235.777 145.662 231.796M126.724 243.387C110.331 253.048 97.2638 259.892 84.4614 265.617C84.4609 265.617 84.4603 265.618 84.4598 265.618C84.4022 265.644 84.3445 265.669 84.2869 265.695L126.861 243.621L126.724 243.387ZM145.662 231.796L145.814 232.029C145.856 232.002 145.897 231.975 145.939 231.947C154.088 226.894 162.614 221.152 169.231 214.005C169.248 213.986 169.266 213.967 169.283 213.949C171.491 211.558 173.787 208.676 174.561 204.96M145.662 231.796C145.704 231.77 145.747 231.743 145.789 231.717C145.791 231.716 145.792 231.715 145.794 231.714C153.925 226.667 162.418 220.931 169.006 213.797C169.023 213.778 169.04 213.76 169.058 213.741C171.231 211.381 173.479 208.543 174.264 204.9L174.561 204.96M174.561 204.96C174.567 204.93 174.573 204.9 174.579 204.87C174.579 204.869 174.579 204.869 174.579 204.868C175.487 200.187 173.577 194.507 169.478 189.583L174.265 204.898L174.561 204.96ZM145.261 172.014C145.985 172.5 146.727 172.951 147.47 173.403C148.123 173.8 148.777 174.196 149.417 174.617L-8.10641 85.941C-7.29017 86.4175 -6.49445 86.8679 -5.71767 87.2938C-1.91341 89.3708 1.38477 90.8267 4.59797 91.9923M145.261 172.014C145.172 171.958 145.083 171.902 144.995 171.846C144.994 171.846 144.994 171.846 144.994 171.846C143.53 170.926 142.07 170.001 140.614 169.072M145.261 172.014L145.246 172.036L149.402 174.64C148.679 174.154 147.936 173.702 147.193 173.251C146.54 172.854 145.887 172.457 145.247 172.037L145.261 172.014ZM140.614 169.072C116.387 153.498 93.0578 136.756 71.0582 119.171M140.614 169.072C116.331 153.581 93.069 136.876 71.0582 119.171M140.614 169.072C142.067 170.006 143.524 170.936 144.984 171.862L57.3771 107.983L57.4168 107.935M71.0582 119.171C66.4557 115.469 61.9078 111.723 57.4168 107.935M71.0582 119.171C66.4381 115.478 61.8766 111.748 57.3777 107.983L57.4168 107.935M57.4168 107.935C57.3369 107.87 57.2571 107.804 57.1776 107.739C57.1774 107.739 57.1773 107.739 57.1771 107.738C56.7389 107.378 56.3055 107.02 55.8762 106.666C51.9025 103.387 48.2745 100.394 44.289 98.0535C44.1992 97.9982 44.1094 97.9433 44.0197 97.8889C44.0197 97.8889 44.0197 97.8889 44.0197 97.8889C41.4686 96.3418 39.0037 95.1835 36.625 94.4139M36.625 94.4139C34.2299 93.5846 31.9151 93.1176 29.6383 93.0523L29.6302 93.2721M36.625 94.4139C34.2042 93.6307 31.8725 93.2501 29.6302 93.2721M36.625 94.4139C38.995 95.2345 41.4436 96.4099 44.0121 97.902L18.29 94.2653M29.6302 93.2721L29.628 93.052C29.4901 93.0481 29.3524 93.0457 29.2147 93.0448C27.0927 93.0306 25.1374 93.2568 23.3016 93.5617L23.3173 93.9569M29.6302 93.2721C29.4916 93.267 29.3526 93.264 29.2133 93.2629C27.3315 93.2484 25.3958 93.5901 23.616 93.9042C23.5159 93.9219 23.4163 93.9395 23.3173 93.9569M23.3173 93.9569L23.2493 93.5704C23.0864 93.5976 22.9244 93.6255 22.7633 93.6538C21.249 93.8716 19.7347 94.0894 18.2894 94.1812C18.2883 94.1812 18.2872 94.1813 18.2861 94.1814C18.2411 94.1842 18.1963 94.1869 18.1515 94.1895M23.3173 93.9569C23.1496 93.9635 22.9841 93.9715 22.8208 93.9804C22.8173 93.9806 22.8139 93.9808 22.8104 93.981C22.1846 94.0153 21.5887 94.064 21.0083 94.1114C20.0824 94.187 19.1959 94.2595 18.29 94.2653M18.1515 94.1895C14.0845 94.4587 9.63587 93.8134 4.74466 92.0457C4.7446 92.0456 4.74454 92.0456 4.74447 92.0456C4.69568 92.028 4.64685 92.0102 4.59797 91.9923M18.1515 94.1895L18.1562 94.2712L18.29 94.2653M18.1515 94.1895L18.1569 94.2712C18.2012 94.2693 18.2456 94.2674 18.29 94.2653M4.59797 91.9923L4.58948 92.0156L4.73645 92.0681C4.68755 92.0507 4.63857 92.0332 4.58953 92.0156L4.59797 91.9923ZM152.751 176.742C151.716 176.085 150.68 175.429 149.679 174.791L155.546 178.541L155.557 178.523C154.639 177.939 153.695 177.34 152.751 176.742ZM163.428 183.881C160.956 182.017 158.295 180.219 155.823 178.692L169.29 189.357C167.718 187.485 165.989 185.853 163.677 184.07C163.595 184.007 163.512 183.944 163.429 183.882C163.429 183.882 163.429 183.881 163.428 183.881Z" fill="white" stroke="white"/>
<path d="M58.4768 282.434C58.4766 282.434 58.4763 282.434 58.4761 282.434L58.4502 282.33L58.4768 282.434ZM138.442 245.404L138.513 245.519L138.444 245.402C138.443 245.403 138.443 245.403 138.442 245.404ZM22.9131 286.17L22.9166 286.101L22.9131 286.17ZM159.343 232.443L159.418 232.56C159.418 232.56 159.418 232.56 159.419 232.56L159.343 232.443Z" fill="white" stroke="white"/>
<path d="M-102.941 214.54C-105.92 209.131 -106.806 202.528 -105.714 195.928C-104.546 189.189 -101.502 183.297 -98.4712 177.757C-95.4403 172.218 -92.0566 166.691 -89.2661 161.92C-86.6271 157.425 -83.9254 153.145 -81.2237 148.865C-65.0631 122.618 -49.9502 97.9562 -46.75 68.7563C-46.6481 67.9123 -46.622 67.2068 -46.5201 66.3628C-45.8958 60.9461 -45.4099 55.4536 -42.5566 50.8966C-36.1812 40.8888 -25.2641 45.6023 -16.4897 50.943C-7.50097 56.221 4.14514 62.2331 15.6866 61.53C17.6019 61.3183 19.5172 61.1066 21.5083 60.7564C24.0663 60.3566 26.7002 59.8183 29.5222 59.9227C42.7255 60.1288 54.4919 70.5256 64.1444 78.8659C97.4682 108.075 133.63 135.059 171.798 159.361C174.97 161.457 178.079 163.338 181.327 165.295L185.053 167.693C188.024 169.499 191.612 171.822 194.91 174.346C197.792 176.643 200.183 178.851 202.359 181.121C207.781 187.327 210.267 194.625 209.062 200.444C208.187 205.003 205.083 208.704 202.433 211.573C194.346 220.104 184.347 226.869 173.856 233.546C165.899 238.55 158.157 243.491 150.718 247.878C130.633 259.922 114.772 268.519 99.1783 275.642C81.1385 283.947 53.6844 294.658 23.5751 293.119C17.7927 292.835 10.4737 292.069 3.96475 288.508C-3.86639 284.403 -9.11078 277.215 -14.3682 270.38C-16.1163 267.984 -18.003 265.512 -19.8269 263.254C-30.0412 251.008 -44.3788 241.363 -59.1761 236.506C-62.6644 235.317 -66.1658 234.481 -69.6672 233.645C-73.6598 232.72 -77.7152 231.581 -81.6948 230.304C-89.7166 227.534 -96.061 223.343 -100.035 218.109C-100.438 217.529 -100.84 216.949 -101.243 216.369C-102.212 215.839 -102.614 215.259 -102.941 214.54ZM15.9244 62.7398C4.0302 63.4299 -7.96867 57.4047 -17.0201 51.9124C-26.0088 46.6344 -35.7422 42.3886 -41.5872 51.427C-44.2889 55.7071 -44.8375 60.9853 -45.3103 66.125C-45.4122 66.969 -45.5141 67.8129 -45.5402 68.5185C-48.6777 97.9327 -64.0806 122.795 -80.2412 149.043C-82.9429 153.323 -85.5819 157.817 -88.2836 162.097C-91.0741 166.869 -94.4578 172.395 -97.4887 177.935C-100.444 183.336 -103.488 189.228 -104.58 195.829C-105.761 202.92 -104.334 210.179 -100.864 215.677C-100.461 216.257 -100.059 216.837 -99.6566 217.417C-95.7448 222.436 -89.6775 226.476 -81.7941 229.17C-77.8903 230.586 -73.7592 231.586 -69.7665 232.511C-66.2651 233.347 -62.7637 234.183 -59.2754 235.372C-44.2638 240.167 -29.7251 250.101 -19.3722 262.423C-17.4098 264.757 -15.6617 267.153 -13.7751 269.625C-8.65615 276.384 -3.33599 283.434 4.14241 287.526C10.5887 290.873 17.6933 291.701 23.2616 292.048C53.1565 293.649 80.3964 283.001 98.4361 274.696C114.03 267.573 129.815 259.115 149.976 246.932C157.277 242.469 165.082 237.742 173.114 232.6C183.529 226.062 193.529 219.297 201.615 210.765C204.265 207.896 207.079 204.397 207.941 200.19C209.07 194.51 206.634 187.779 201.489 181.725C199.527 179.391 197.136 177.184 194.317 175.101C191.157 172.653 187.431 170.254 184.599 168.524L180.873 166.126C177.625 164.169 174.591 162.149 171.343 160.192C133.175 135.89 96.8751 108.831 63.5513 79.6211C53.8857 71.6335 42.2578 61.3125 29.4073 61.1194C26.7237 61.0908 24.1657 61.4906 21.6076 61.8905C19.755 62.3164 17.8397 62.5281 15.9244 62.7398Z" fill="white"/>
</g>
<g opacity="0.5" clip-path="url(#clip2_90_120)">
<path d="M400.695 87.6022C400.472 87.6124 400.142 87.7391 399.919 87.7493C399.696 87.7594 399.59 87.876 399.473 87.7696C397.922 88.0637 396.234 87.8053 394.526 87.1009C392.935 86.5029 391.556 85.6717 390.517 84.9369C389.361 84.0956 388.205 83.2543 387.166 82.5194C379.872 76.9292 375.563 70.6444 372.207 65.657L371.974 65.4442C371.371 64.466 370.768 63.4878 370.261 62.1699C369.49 59.9702 370.503 57.6892 371.644 55.7377C372.774 53.5631 374.117 51.1554 374.674 48.6717C374.771 48.3321 374.857 47.7695 374.953 47.4299C375.146 46.7507 375.232 46.188 375.424 45.5088C376.291 42.4524 378.08 40.0243 380.305 37.353C386.853 29.0094 393.857 20.8686 401.105 13.1637C401.956 12.231 402.808 11.2983 403.776 10.472C404.637 9.76234 405.393 9.16924 406.158 8.79917C406.923 8.4291 407.689 8.05904 408.581 8.01842C410.355 7.71416 412.266 7.96238 413.751 8.67695C414.78 9.18881 415.712 10.0403 416.549 11.2313C418.328 13.4969 419.692 16.4518 420.99 20.4154C421.644 22.5087 422.201 24.9417 422.779 27.8206C423.936 33.5786 424.848 38.9006 425.411 43.9033C426.015 49.7981 426.593 57.5937 424.572 64.7255C423.887 66.8797 423.289 68.4713 422.565 69.7335C421.318 71.8016 419.382 73.4541 417.542 74.767L416.893 75.2436C414.415 77.256 411.511 79.7348 408.617 82.4366L408.404 82.6698C407.116 83.8458 405.936 84.9053 404.638 85.8583C403.107 86.5984 401.906 87.2118 400.695 87.6022ZM375.693 48.9606C375.029 51.5608 373.803 54.075 372.566 56.3661C371.532 58.2011 370.615 60.1424 371.259 62.0127C371.649 63.2241 372.253 64.2023 372.846 64.9575L373.079 65.1704C376.668 70.3706 380.627 76.3361 387.805 81.8198C388.844 82.5547 390 83.396 391.155 84.2373C392.194 84.9722 393.457 85.6969 394.932 86.1885C396.407 86.68 397.978 86.832 399.316 86.7711C399.539 86.7609 399.539 86.7609 399.762 86.7507C401.09 86.4668 402.408 85.9598 403.928 84.9967C405.226 84.0437 406.3 83.1008 407.588 81.9248L407.801 81.6916C410.695 78.9898 413.599 76.511 416.077 74.4985L416.726 74.022C418.556 72.4861 420.279 71.0667 421.536 69.2216C422.26 67.9595 422.975 66.4743 423.553 64.4366C425.575 57.3049 425.006 49.7323 424.413 44.0605C423.85 39.0578 423.054 33.8422 421.898 28.0843C421.32 25.2053 420.772 22.9954 420.224 20.7855C419.043 16.9283 417.796 14.0798 416.027 12.0373C415.201 11.0692 414.384 10.3242 413.578 9.80221C412.316 9.07748 410.745 8.92555 409.194 9.21965C408.419 9.36669 407.76 9.62018 407.101 9.87367C406.335 10.2437 405.687 10.7202 404.931 11.3133C403.963 12.1396 403.112 13.0723 402.367 13.8884C395.003 21.4869 387.998 29.6277 381.45 37.9713C379.448 40.6325 377.659 43.0605 376.783 45.8939C376.59 46.5732 376.504 47.1358 376.311 47.815C375.876 48.0583 375.896 48.5044 375.693 48.9606Z" fill="white"/>
<path d="M396.276 98.5307C396.169 98.6473 395.946 98.6574 395.83 98.551C393.726 98.982 391.369 98.7541 389.098 97.9635C387.051 97.1628 385.322 96.0124 383.7 94.7453C382.195 93.5847 380.689 92.4241 379.173 91.0405C373.831 86.5906 369.37 81.8771 365.492 77.6957C362.207 74.2695 359.039 70.9498 356.008 68.1825C354.842 67.1182 353.453 66.064 352.596 64.4269C351.02 61.7051 352.672 58.7246 354.557 55.957C356.656 52.9562 358.744 49.7324 359.58 46.0068C359.666 45.4442 359.858 44.765 359.944 44.2023C360.127 43.3001 360.203 42.5145 360.492 41.4956C361.637 37.1973 365.169 33.796 368.053 30.8711L370.724 28.1795C380.014 18.7054 389.624 8.88159 399.233 -0.942226C400.511 -2.34128 401.691 -3.40072 402.979 -4.57675C404.16 -5.63619 405.128 -6.46246 406 -6.94912C406.978 -7.55236 407.966 -7.93259 408.955 -8.31282C409.178 -8.32298 409.284 -8.43956 409.507 -8.44971C411.717 -8.9973 413.957 -8.87581 415.676 -7.94838C417.277 -7.12738 418.347 -5.72344 419.173 -4.75539C421.916 -0.969295 423.69 3.64305 424.745 7.17077C425.652 9.92299 426.463 13.0148 427.305 16.7757C429.232 24.7334 430.428 31.3834 431.392 37.8205C432.416 45.5958 433.436 55.7178 430.537 65.6831C430.066 67.6041 429.169 69.9915 427.593 72.1864C425.804 74.6144 423.199 76.2974 420.817 77.9703C420.274 78.3302 419.626 78.8067 419.083 79.1666C414.851 81.9294 410.776 85.6906 407.37 89.4214C406.838 90.0043 406.412 90.4707 405.88 91.0536C404.71 92.3361 403.762 93.6084 402.474 94.7844C400.655 96.5434 398.699 97.7499 396.712 98.2873C396.382 98.4141 396.276 98.5307 396.276 98.5307ZM359.367 46.24C358.637 49.8489 356.443 53.1894 354.344 56.1902C352.566 58.8412 351.02 61.7051 352.49 64.5435C353.453 66.064 354.619 67.1283 355.785 68.1927C359.039 70.9498 362.091 74.1631 365.386 77.8123C369.264 81.9936 373.724 86.7072 379.067 91.157C380.689 92.4241 382.205 93.8077 383.594 94.8619C385.216 96.129 386.944 97.2794 388.992 98.0801C391.156 98.9872 393.62 99.0985 395.723 98.6675C395.946 98.6574 396.169 98.6473 396.276 98.5307C398.263 97.9932 400.219 96.7867 402.039 95.0278C403.326 93.8517 404.274 92.5794 405.444 91.297C405.977 90.714 406.402 90.2477 406.935 89.6647C410.224 85.8275 414.415 82.1727 418.647 79.4099C419.19 79.05 419.839 78.5735 420.381 78.2136C422.986 76.5306 425.485 74.9642 427.157 72.4297C428.627 70.3514 429.407 67.8576 430.102 65.9264C432.894 56.0778 432.097 45.9455 430.966 38.2869C430.003 31.8497 428.806 25.1997 426.879 17.2421C426.038 13.4812 425.226 10.3893 424.319 7.63712C423.148 4.00297 421.596 -0.619539 418.747 -4.28904C418.028 -5.37368 416.852 -6.66103 415.25 -7.48204C413.415 -8.51591 411.068 -8.52079 408.645 -7.74003C407.657 -7.3598 406.669 -6.97958 405.69 -6.37633C404.712 -5.77309 403.851 -5.06341 402.67 -4.00397C401.382 -2.82794 400.201 -1.76849 398.924 -0.369442C389.315 9.45437 379.705 19.2782 370.415 28.7522L367.744 31.4439C364.967 34.2522 361.551 37.7599 360.289 41.9518C360.107 42.8541 359.924 43.7563 359.742 44.6585C359.645 44.9982 359.559 45.5608 359.367 46.24Z" fill="white"/>
<path d="M344.689 37.7038C346.213 32.3906 350.778 28.2223 354.588 24.7427C354.614 24.7195 354.639 24.6963 354.665 24.6731L344.689 37.7038ZM344.689 37.7038L344.45 37.6672L344.689 37.7038Z" fill="white" stroke="white"/>
<path d="M423.425 88.0693C423.525 88.0107 423.626 87.9525 423.727 87.8946L423.425 88.0693ZM423.425 88.0693L423.397 88.0213L423.423 88.0707" fill="white" stroke="white"/>
<path d="M450.226 20.9168C450.226 20.917 450.226 20.9173 450.226 20.9176L449.827 20.9897M450.226 20.9168L449.827 20.9896M450.226 20.9168C450.211 20.8325 450.196 20.7483 450.18 20.664L450.276 20.6466M450.226 20.9168L419.874 -59.3476M449.827 20.9897C449.827 20.9897 449.827 20.9896 449.827 20.9896M449.827 20.9897L449.734 21.0065M449.827 20.9897C450.359 24.1688 450.802 27.2133 451.157 30.1332C451.586 33.5117 451.88 36.7436 452.039 39.8438C452.137 41.5775 452.198 43.2624 452.221 44.9013C452.222 45.0192 452.223 45.1369 452.224 45.2545L452.179 45.2548L449.734 21.0065M449.827 20.9896L449.734 21.0065M449.827 20.9896C449.813 20.9041 449.798 20.8185 449.784 20.7328C447.854 10.0481 445.221 -1.49097 441.155 -15.3947C441.155 -15.3948 441.155 -15.3948 441.155 -15.3949C441.137 -15.4565 441.119 -15.5182 441.101 -15.5799C439.401 -21.3591 437.712 -26.9174 436.044 -32.0401C436.044 -32.0401 436.044 -32.0402 436.044 -32.0403C436.026 -32.0954 436.008 -32.1504 435.99 -32.2054C433.786 -38.9166 431.113 -46.4412 426.723 -52.9907C426.721 -52.9936 426.719 -52.9966 426.717 -52.9995L426.59 -52.9183M449.734 21.0065L441.039 -15.3606C439.32 -21.2046 437.611 -26.8256 435.923 -32.0006C433.718 -38.7164 430.909 -46.4105 426.59 -52.9183M426.59 -52.9183L426.715 -53.0014C425.29 -54.9401 423.577 -57.1025 421.075 -58.3729C420.975 -58.4189 420.873 -58.4632 420.77 -58.5059L420.75 -58.463M426.59 -52.9183C425.267 -54.9811 423.488 -57.2467 420.75 -58.463M420.75 -58.463L420.77 -58.5061C420.435 -58.6449 420.087 -58.7662 419.726 -58.8698C420.079 -58.7505 420.421 -58.6148 420.75 -58.463ZM419.874 -59.3476C420.247 -59.222 420.609 -59.0788 420.958 -58.9181C421.062 -58.8715 421.166 -58.8234 421.268 -58.7739L421.293 -58.8229M419.874 -59.3476C420.37 -59.2047 420.844 -59.0298 421.293 -58.8229M421.293 -58.8229L421.27 -58.773C423.962 -57.4683 425.719 -55.2009 427.007 -53.1942L427.132 -53.2782M421.293 -58.8229C423.924 -57.49 425.703 -55.2245 427.132 -53.2782M427.132 -53.2782L427.011 -53.1888C431.332 -46.6754 434.146 -39.001 436.344 -32.321L436.465 -32.3605M427.132 -53.2782C431.568 -46.6639 434.26 -39.0763 436.465 -32.3605M436.465 -32.3605L436.344 -32.3207C436.362 -32.266 436.38 -32.2113 436.398 -32.1566L436.398 -32.1557C438.071 -27.0288 439.763 -21.4665 441.464 -15.6862L441.581 -15.7205M436.465 -32.3605C438.154 -27.1855 439.862 -21.5645 441.581 -15.7205M441.581 -15.7205L441.464 -15.6861C441.482 -15.6246 441.5 -15.5631 441.518 -15.5016L441.518 -15.5011C445.593 -1.59046 448.239 9.96594 450.18 20.6628L450.276 20.6466M441.581 -15.7205C445.683 -1.71604 448.334 9.89608 450.276 20.6466" fill="white" stroke="white"/>
<mask id="path-13-inside-2_90_120" fill="white">
<path d="M380.039 144.413C375.842 145.498 371.022 145.159 366.577 143.239C362.131 141.318 358.411 138.135 355.273 135.484C352.125 132.611 348.977 129.737 345.703 126.534C341.962 122.905 338.221 119.276 334.703 115.637C320.418 101.314 306.843 87.8527 289.741 80.3625C289.285 80.1598 288.829 79.9571 288.489 79.8608C285.073 78.452 281.656 77.0431 279.177 74.139C273.997 68.3408 278.512 61.9894 283.515 56.5098C288.836 50.6804 294.447 43.8322 295.972 35.6056C296.134 34.2574 296.403 32.7925 296.458 31.5608C296.6 29.7665 296.848 27.8556 297.32 25.9345C299.706 16.9983 308.449 10.2309 315.585 4.98938C340.537 -13.9136 365.058 -34.92 388.276 -57.5433C389.021 -58.3594 389.882 -59.0691 390.627 -59.8852C392.447 -61.6441 394.373 -63.5197 396.299 -65.3953C398.225 -67.2708 400.374 -69.1565 402.639 -70.9358C404.692 -72.4819 406.648 -73.6884 408.615 -74.6718C413.643 -77.1356 419.102 -77.4959 422.878 -75.5448C425.848 -74.1156 427.871 -71.4142 429.544 -69.032C434.573 -61.6626 437.528 -53.193 440.241 -45.1594C442.192 -39.1025 444.271 -32.7161 446.127 -26.3196C450.882 -10.2219 454.051 2.9311 456.277 15.0096C458.093 25.4306 459.061 34.4376 459.108 42.8161C459.129 53.0953 457.984 62.3103 455.258 71.1502C454.092 75.0025 452.308 80.0004 448.806 84.0708C444.772 88.7241 439.085 91.4414 433.505 94.042C431.645 94.9089 429.784 95.7758 428.041 96.7491C423.023 99.4359 418.365 102.665 413.854 106.67C409.45 110.558 405.735 114.861 402.709 119.58C401.346 121.542 400.11 123.833 398.969 125.785C397.52 128.309 395.964 130.95 394.068 133.494C390.49 138.351 386.618 141.656 382.452 143.41C382.016 143.653 381.463 143.79 381.134 143.917C380.815 144.266 380.485 144.393 380.039 144.413ZM295.982 35.8287C294.457 44.0552 288.847 50.9034 283.525 56.7328C278.523 62.2124 274.007 68.5638 279.188 74.362C281.55 77.1597 285.083 78.675 288.383 79.9774C288.839 80.1801 289.295 80.3828 289.635 80.4791C306.737 87.9693 320.312 101.431 334.596 115.754C338.221 119.276 341.855 123.022 345.596 126.65C348.754 129.747 352.019 132.727 355.167 135.601C358.314 138.475 362.141 141.541 366.47 143.355C370.916 145.276 375.736 145.615 379.933 144.53C380.262 144.403 380.708 144.383 381.038 144.256C381.474 144.013 381.92 143.993 382.355 143.749C386.522 141.995 390.394 138.69 393.972 133.834C395.761 131.406 397.317 128.765 398.873 126.124C400.12 124.056 401.25 121.882 402.613 119.92C405.755 115.307 409.47 111.004 413.758 107.009C418.163 103.121 422.927 99.7755 427.945 97.0887C429.688 96.1154 431.548 95.2485 433.408 94.3816C438.989 91.781 444.676 89.0637 448.71 84.4104C452.106 80.4566 453.89 75.4587 455.161 71.4898C457.781 62.7665 459.033 53.435 458.905 43.2723C458.859 34.8938 457.89 25.8868 456.075 15.4658C453.955 3.27071 450.669 -9.98869 445.924 -25.8634C443.952 -32.3664 441.99 -38.6463 440.038 -44.7032C437.325 -52.7368 434.253 -61.3128 429.341 -68.5758C427.668 -70.958 425.762 -73.553 422.675 -75.0886C418.793 -76.9231 413.557 -76.573 408.529 -74.1092C406.562 -73.1258 404.606 -71.9193 402.553 -70.3732C400.287 -68.5939 398.139 -66.7082 396.213 -64.8326C394.393 -63.0737 392.467 -61.1981 390.541 -59.3226C389.796 -58.5064 388.934 -57.7967 388.189 -56.9806C364.972 -34.3574 340.451 -13.351 315.499 5.55201C308.48 10.9 299.62 17.5609 297.233 26.4972C296.762 28.4182 296.62 30.2125 296.372 32.1234C296.413 33.0155 296.251 34.3638 295.982 35.8287Z"/>
</mask>
<path d="M380.039 144.413C375.842 145.498 371.022 145.159 366.577 143.239C362.131 141.318 358.411 138.135 355.273 135.484C352.125 132.611 348.977 129.737 345.703 126.534C341.962 122.905 338.221 119.276 334.703 115.637C320.418 101.314 306.843 87.8527 289.741 80.3625C289.285 80.1598 288.829 79.9571 288.489 79.8608C285.073 78.452 281.656 77.0431 279.177 74.139C273.997 68.3408 278.512 61.9894 283.515 56.5098C288.836 50.6804 294.447 43.8322 295.972 35.6056C296.134 34.2574 296.403 32.7925 296.458 31.5608C296.6 29.7665 296.848 27.8556 297.32 25.9345C299.706 16.9983 308.449 10.2309 315.585 4.98938C340.537 -13.9136 365.058 -34.92 388.276 -57.5433C389.021 -58.3594 389.882 -59.0691 390.627 -59.8852C392.447 -61.6441 394.373 -63.5197 396.299 -65.3953C398.225 -67.2708 400.374 -69.1565 402.639 -70.9358C404.692 -72.4819 406.648 -73.6884 408.615 -74.6718C413.643 -77.1356 419.102 -77.4959 422.878 -75.5448C425.848 -74.1156 427.871 -71.4142 429.544 -69.032C434.573 -61.6626 437.528 -53.193 440.241 -45.1594C442.192 -39.1025 444.271 -32.7161 446.127 -26.3196C450.882 -10.2219 454.051 2.9311 456.277 15.0096C458.093 25.4306 459.061 34.4376 459.108 42.8161C459.129 53.0953 457.984 62.3103 455.258 71.1502C454.092 75.0025 452.308 80.0004 448.806 84.0708C444.772 88.7241 439.085 91.4414 433.505 94.042C431.645 94.9089 429.784 95.7758 428.041 96.7491C423.023 99.4359 418.365 102.665 413.854 106.67C409.45 110.558 405.735 114.861 402.709 119.58C401.346 121.542 400.11 123.833 398.969 125.785C397.52 128.309 395.964 130.95 394.068 133.494C390.49 138.351 386.618 141.656 382.452 143.41C382.016 143.653 381.463 143.79 381.134 143.917C380.815 144.266 380.485 144.393 380.039 144.413ZM295.982 35.8287C294.457 44.0552 288.847 50.9034 283.525 56.7328C278.523 62.2124 274.007 68.5638 279.188 74.362C281.55 77.1597 285.083 78.675 288.383 79.9774C288.839 80.1801 289.295 80.3828 289.635 80.4791C306.737 87.9693 320.312 101.431 334.596 115.754C338.221 119.276 341.855 123.022 345.596 126.65C348.754 129.747 352.019 132.727 355.167 135.601C358.314 138.475 362.141 141.541 366.47 143.355C370.916 145.276 375.736 145.615 379.933 144.53C380.262 144.403 380.708 144.383 381.038 144.256C381.474 144.013 381.92 143.993 382.355 143.749C386.522 141.995 390.394 138.69 393.972 133.834C395.761 131.406 397.317 128.765 398.873 126.124C400.12 124.056 401.25 121.882 402.613 119.92C405.755 115.307 409.47 111.004 413.758 107.009C418.163 103.121 422.927 99.7755 427.945 97.0887C429.688 96.1154 431.548 95.2485 433.408 94.3816C438.989 91.781 444.676 89.0637 448.71 84.4104C452.106 80.4566 453.89 75.4587 455.161 71.4898C457.781 62.7665 459.033 53.435 458.905 43.2723C458.859 34.8938 457.89 25.8868 456.075 15.4658C453.955 3.27071 450.669 -9.98869 445.924 -25.8634C443.952 -32.3664 441.99 -38.6463 440.038 -44.7032C437.325 -52.7368 434.253 -61.3128 429.341 -68.5758C427.668 -70.958 425.762 -73.553 422.675 -75.0886C418.793 -76.9231 413.557 -76.573 408.529 -74.1092C406.562 -73.1258 404.606 -71.9193 402.553 -70.3732C400.287 -68.5939 398.139 -66.7082 396.213 -64.8326C394.393 -63.0737 392.467 -61.1981 390.541 -59.3226C389.796 -58.5064 388.934 -57.7967 388.189 -56.9806C364.972 -34.3574 340.451 -13.351 315.499 5.55201C308.48 10.9 299.62 17.5609 297.233 26.4972C296.762 28.4182 296.62 30.2125 296.372 32.1234C296.413 33.0155 296.251 34.3638 295.982 35.8287Z" fill="white"/>
<path d="M380.039 144.413L379.994 143.414L379.89 143.419L379.789 143.445L380.039 144.413ZM355.273 135.484L354.599 136.223L354.613 136.236L354.628 136.248L355.273 135.484ZM345.703 126.534L346.402 125.819L346.399 125.816L345.703 126.534ZM334.703 115.637L335.422 114.942L335.416 114.936L335.411 114.931L334.703 115.637ZM289.741 80.3625L289.335 81.2763L289.34 81.2785L289.741 80.3625ZM288.489 79.8608L288.108 80.7853L288.161 80.8072L288.216 80.8229L288.489 79.8608ZM279.177 74.139L279.938 73.4898L279.931 73.4811L279.923 73.4727L279.177 74.139ZM295.972 35.6056L296.955 35.7879L296.961 35.7566L296.965 35.725L295.972 35.6056ZM296.458 31.5608L295.461 31.482L295.46 31.4988L295.459 31.5157L296.458 31.5608ZM297.32 25.9345L296.353 25.6765L296.351 25.6864L296.348 25.6963L297.32 25.9345ZM315.585 4.98938L316.177 5.79534L316.183 5.79095L316.189 5.78647L315.585 4.98938ZM388.276 -57.5433L388.973 -56.827L388.994 -56.8475L389.014 -56.8691L388.276 -57.5433ZM390.627 -59.8852L389.932 -60.6041L389.91 -60.5824L389.889 -60.5594L390.627 -59.8852ZM402.639 -70.9358L402.038 -71.7346L402.029 -71.7285L402.022 -71.7223L402.639 -70.9358ZM408.615 -74.6718L408.175 -75.5699L408.168 -75.5663L408.615 -74.6718ZM422.878 -75.5448L422.419 -74.6563L422.432 -74.6498L422.444 -74.6436L422.878 -75.5448ZM429.544 -69.032L430.37 -69.5957L430.362 -69.6067L429.544 -69.032ZM440.241 -45.1594L441.192 -45.4662L441.188 -45.4793L440.241 -45.1594ZM446.127 -26.3196L445.166 -26.041L445.168 -26.0363L446.127 -26.3196ZM456.277 15.0096L457.263 14.8379L457.261 14.8283L456.277 15.0096ZM459.108 42.8161L460.108 42.814L460.108 42.8106L459.108 42.8161ZM455.258 71.1502L454.302 70.8555L454.301 70.8607L455.258 71.1502ZM448.806 84.0708L449.562 84.7258L449.564 84.723L448.806 84.0708ZM433.505 94.042L433.082 93.1356L433.505 94.042ZM428.041 96.7491L428.513 97.6307L428.521 97.6265L428.528 97.6223L428.041 96.7491ZM413.854 106.67L414.516 107.419L414.518 107.417L413.854 106.67ZM402.709 119.58L403.531 120.151L403.541 120.136L403.551 120.12L402.709 119.58ZM398.969 125.785L398.106 125.28L398.102 125.287L398.969 125.785ZM394.068 133.494L393.266 132.897L393.263 132.901L394.068 133.494ZM382.452 143.41L382.064 142.488L382.013 142.51L381.964 142.537L382.452 143.41ZM381.134 143.917L380.775 142.983L380.555 143.068L380.395 143.242L381.134 143.917ZM295.982 35.8287L296.965 36.0109L296.966 36.009L295.982 35.8287ZM279.188 74.362L279.952 73.7169L279.943 73.7061L279.933 73.6957L279.188 74.362ZM288.383 79.9774L288.789 79.0635L288.769 79.055L288.75 79.0472L288.383 79.9774ZM289.635 80.4791L290.036 79.5631L289.973 79.5356L289.907 79.517L289.635 80.4791ZM334.596 115.754L333.888 116.46L333.894 116.465L333.899 116.471L334.596 115.754ZM345.596 126.65L346.296 125.936L346.292 125.933L345.596 126.65ZM366.47 143.355L366.867 142.437L366.857 142.433L366.47 143.355ZM379.933 144.53L380.183 145.498L380.238 145.484L380.292 145.463L379.933 144.53ZM381.038 144.256L381.397 145.19L381.463 145.164L381.525 145.129L381.038 144.256ZM382.355 143.749L381.967 142.828L381.916 142.849L381.868 142.876L382.355 143.749ZM398.873 126.124L398.016 125.608L398.011 125.617L398.873 126.124ZM402.613 119.92L403.434 120.491L403.44 120.483L402.613 119.92ZM413.758 107.009L413.096 106.259L413.086 106.268L413.077 106.277L413.758 107.009ZM427.945 97.0887L428.417 97.9703L428.424 97.9661L428.432 97.9619L427.945 97.0887ZM433.408 94.3816L432.986 93.4752L433.408 94.3816ZM448.71 84.4104L449.466 85.0655L449.469 85.0619L448.71 84.4104ZM455.161 71.4898L456.114 71.795L456.117 71.7863L456.119 71.7775L455.161 71.4898ZM458.905 43.2723L457.905 43.2778L457.905 43.2848L458.905 43.2723ZM456.075 15.4658L455.089 15.637L455.089 15.6374L456.075 15.4658ZM445.924 -25.8634L446.882 -26.1498L446.881 -26.1536L445.924 -25.8634ZM440.038 -44.7032L440.99 -45.01L440.985 -45.0231L440.038 -44.7032ZM429.341 -68.5758L430.169 -69.1361L430.165 -69.1433L430.159 -69.1505L429.341 -68.5758ZM422.675 -75.0886L423.121 -75.9839L423.112 -75.9884L423.103 -75.9927L422.675 -75.0886ZM408.529 -74.1092L408.089 -75.0073L408.081 -75.0036L408.529 -74.1092ZM402.553 -70.3732L401.951 -71.1719L401.943 -71.1659L401.935 -71.1596L402.553 -70.3732ZM396.213 -64.8326L396.908 -64.1137L396.91 -64.1162L396.213 -64.8326ZM390.541 -59.3226L389.843 -60.039L389.822 -60.0185L389.803 -59.9968L390.541 -59.3226ZM388.189 -56.9806L388.887 -56.2644L388.908 -56.2848L388.928 -56.3064L388.189 -56.9806ZM315.499 5.55201L314.895 4.75492L314.893 4.75656L315.499 5.55201ZM297.233 26.4972L296.267 26.2391L296.265 26.249L296.262 26.2589L297.233 26.4972ZM296.372 32.1234L295.381 31.9946L295.369 32.0815L295.373 32.1689L296.372 32.1234ZM379.789 143.445C375.814 144.473 371.221 144.156 366.973 142.321L366.18 144.157C370.823 146.162 375.87 146.524 380.289 145.382L379.789 143.445ZM366.973 142.321C362.687 140.469 359.077 137.389 355.918 134.72L354.628 136.248C357.744 138.881 361.576 142.167 366.18 144.157L366.973 142.321ZM355.947 134.746C352.798 131.871 349.662 129.008 346.402 125.819L345.003 127.249C348.292 130.466 351.452 133.351 354.599 136.223L355.947 134.746ZM346.399 125.816C342.656 122.185 338.927 118.567 335.422 114.942L333.984 116.332C337.515 119.985 341.268 123.625 345.006 127.252L346.399 125.816ZM335.411 114.931C321.151 100.633 307.447 87.0254 290.142 79.4465L289.34 81.2785C306.24 88.68 319.685 101.995 333.995 116.343L335.411 114.931ZM290.147 79.4486C289.718 79.2579 289.186 79.0189 288.762 78.8987L288.216 80.8229C288.471 80.8952 288.852 81.0616 289.335 81.2763L290.147 79.4486ZM288.87 78.9363C285.416 77.512 282.235 76.1812 279.938 73.4898L278.417 74.7882C281.077 77.9051 284.729 79.3919 288.108 80.7853L288.87 78.9363ZM279.923 73.4727C278.742 72.1509 278.149 70.8418 277.955 69.5589C277.759 68.2682 277.956 66.9328 278.466 65.5513C279.499 62.7527 281.756 59.9193 284.253 57.184L282.776 55.8356C280.271 58.5799 277.77 61.662 276.589 64.8586C275.993 66.4747 275.719 68.1567 275.977 69.8589C276.237 71.5688 277.022 73.228 278.432 74.8052L279.923 73.4727ZM284.253 57.184C289.571 51.3586 295.373 44.3234 296.955 35.7879L294.989 35.4234C293.521 43.341 288.102 50.0022 282.776 55.8356L284.253 57.184ZM296.965 35.725C297.115 34.4746 297.4 32.8824 297.457 31.606L295.459 31.5157C295.406 32.7026 295.153 34.0402 294.979 35.4863L296.965 35.725ZM297.455 31.6396C297.594 29.8794 297.836 28.0253 298.291 26.1728L296.348 25.6963C295.86 27.6859 295.606 29.6535 295.461 31.482L297.455 31.6396ZM298.286 26.1926C299.418 21.9545 302.074 18.1745 305.388 14.7744C308.7 11.3754 312.61 8.41574 316.177 5.79534L314.993 4.18342C311.425 6.80457 307.395 9.84937 303.955 13.3785C300.517 16.9065 297.608 20.9783 296.353 25.6765L298.286 26.1926ZM316.189 5.78647C341.173 -13.1411 365.725 -34.1745 388.973 -56.827L387.578 -58.2595C364.39 -35.6656 339.901 -14.6861 314.982 4.19229L316.189 5.78647ZM389.014 -56.8691C389.359 -57.2464 389.734 -57.6035 390.14 -57.9891C390.537 -58.3664 390.965 -58.7722 391.366 -59.211L389.889 -60.5594C389.544 -60.1821 389.169 -59.825 388.763 -59.4393C388.366 -59.0621 387.938 -58.6563 387.537 -58.2175L389.014 -56.8691ZM391.322 -59.1662C393.143 -60.9267 395.071 -62.8036 396.996 -64.6788L395.601 -66.1117C393.675 -64.2359 391.75 -62.3616 389.932 -60.6041L391.322 -59.1662ZM396.996 -64.6788C398.897 -66.5294 401.019 -68.3918 403.257 -70.1494L402.022 -71.7223C399.728 -69.9213 397.553 -68.0122 395.601 -66.1117L396.996 -64.6788ZM403.241 -70.137C405.248 -71.6488 407.153 -72.8226 409.062 -73.7775L408.168 -75.5663C406.144 -74.5541 404.136 -73.315 402.038 -71.7346L403.241 -70.137ZM409.055 -73.7739C413.903 -76.1498 419.014 -76.4158 422.419 -74.6563L423.337 -76.4332C419.19 -78.5761 413.382 -78.1215 408.175 -75.5698L409.055 -73.7739ZM422.444 -74.6436C425.152 -73.3408 427.044 -70.8515 428.725 -68.4573L430.362 -69.6067C428.698 -71.9769 426.544 -74.8905 423.312 -76.4459L422.444 -74.6436ZM428.718 -68.4684C433.658 -61.2281 436.577 -52.885 439.293 -44.8395L441.188 -45.4793C438.48 -53.5011 435.487 -62.0971 430.37 -69.5957L428.718 -68.4684ZM439.289 -44.8527C441.242 -38.7906 443.316 -32.4202 445.166 -26.041L447.087 -26.5982C445.226 -33.012 443.143 -39.4144 441.192 -45.4661L439.289 -44.8527ZM445.168 -26.0363C449.915 -9.96539 453.075 3.15304 455.294 15.1908L457.261 14.8283C455.027 2.70914 451.849 -10.4784 447.086 -26.6029L445.168 -26.0363ZM455.292 15.1812C457.101 25.5671 458.062 34.5158 458.108 42.8216L460.108 42.8106C460.061 34.3594 459.084 25.2941 457.262 14.838L455.292 15.1812ZM458.108 42.8181C458.129 53.02 456.993 62.1316 454.302 70.8555L456.213 71.445C458.975 62.489 460.129 53.1707 460.108 42.814L458.108 42.8181ZM454.301 70.8607C453.143 74.6882 451.407 79.515 448.048 83.4186L449.564 84.723C453.21 80.4857 455.042 75.3169 456.215 71.4398L454.301 70.8607ZM448.051 83.4157C444.178 87.8827 438.692 90.5212 433.082 93.1356L433.927 94.9484C439.478 92.3615 445.366 89.5656 449.562 84.7258L448.051 83.4157ZM433.082 93.1356C431.228 93.9996 429.334 94.8817 427.553 95.8759L428.528 97.6223C430.234 96.6698 432.061 95.8182 433.927 94.9484L433.082 93.1356ZM427.569 95.8675C422.482 98.5915 417.759 101.866 413.191 105.922L414.518 107.417C418.971 103.464 423.565 100.28 428.513 97.6307L427.569 95.8675ZM413.193 105.92C408.722 109.866 404.946 114.24 401.868 119.041L403.551 120.12C406.525 115.483 410.178 111.249 414.516 107.419L413.193 105.92ZM401.888 119.01C400.495 121.014 399.221 123.371 398.106 125.28L399.833 126.289C400.998 124.295 402.197 122.07 403.531 120.151L401.888 119.01ZM398.102 125.287C396.654 127.808 395.123 130.404 393.266 132.897L394.87 134.092C396.804 131.496 398.385 128.81 399.836 126.283L398.102 125.287ZM393.263 132.901C389.757 137.659 386.017 140.823 382.064 142.488L382.84 144.331C387.219 142.488 391.223 139.042 394.873 134.088L393.263 132.901ZM381.964 142.537C381.825 142.614 381.645 142.686 381.427 142.761C381.259 142.819 380.955 142.914 380.775 142.983L381.493 144.85C381.643 144.792 381.779 144.756 382.078 144.652C382.328 144.566 382.643 144.448 382.939 144.283L381.964 142.537ZM380.395 143.242C380.314 143.331 380.263 143.359 380.233 143.373C380.198 143.388 380.133 143.408 379.994 143.414L380.085 145.412C380.391 145.398 380.714 145.345 381.035 145.205C381.361 145.062 381.634 144.852 381.872 144.591L380.395 143.242ZM294.999 35.6464C293.531 43.564 288.112 50.2252 282.786 56.0586L284.264 57.407C289.582 51.5816 295.383 44.5465 296.965 36.0109L294.999 35.6464ZM282.786 56.0586C280.281 58.8029 277.78 61.885 276.6 65.0816C276.003 66.6977 275.729 68.3798 275.988 70.0819C276.247 71.7919 277.033 73.451 278.442 75.0283L279.933 73.6957C278.752 72.3739 278.16 71.0648 277.965 69.7819C277.769 68.4912 277.966 67.1558 278.476 65.7743C279.509 62.9758 281.766 60.1424 284.264 57.407L282.786 56.0586ZM278.423 75.0071C280.97 78.0226 284.737 79.6135 288.015 80.9075L288.75 79.0472C285.429 77.7365 282.13 76.2968 279.952 73.7169L278.423 75.0071ZM287.976 80.8912C288.406 81.0819 288.938 81.3209 289.362 81.4412L289.907 79.517C289.652 79.4447 289.272 79.2782 288.789 79.0635L287.976 80.8912ZM289.233 81.3951C306.133 88.7966 319.579 102.112 333.888 116.46L335.304 115.047C321.045 100.749 307.34 87.1419 290.036 79.5631L289.233 81.3951ZM333.899 116.471C335.705 118.226 337.515 120.038 339.345 121.869C341.174 123.699 343.023 125.548 344.9 127.368L346.292 125.933C344.428 124.124 342.59 122.286 340.76 120.455C338.932 118.626 337.112 116.804 335.293 115.036L333.899 116.471ZM344.896 127.364C348.069 130.476 351.347 133.468 354.492 136.339L355.841 134.862C352.691 131.987 349.44 129.019 346.296 125.936L344.896 127.364ZM354.492 136.339C357.665 139.235 361.594 142.396 366.084 144.277L366.857 142.433C362.689 140.686 358.964 137.714 355.841 134.862L354.492 136.339ZM366.074 144.273C370.716 146.279 375.764 146.641 380.183 145.498L379.682 143.562C375.708 144.589 371.115 144.273 366.867 142.437L366.074 144.273ZM380.292 145.463C380.356 145.439 380.455 145.417 380.671 145.376C380.843 145.343 381.132 145.292 381.397 145.19L380.679 143.323C380.614 143.348 380.515 143.37 380.299 143.411C380.127 143.443 379.839 143.495 379.574 143.597L380.292 145.463ZM381.525 145.129C381.633 145.069 381.751 145.03 381.983 144.961C382.192 144.898 382.515 144.805 382.843 144.622L381.868 142.876C381.76 142.936 381.642 142.975 381.41 143.045C381.201 143.107 380.878 143.2 380.55 143.383L381.525 145.129ZM382.744 144.671C387.123 142.827 391.127 139.381 394.777 134.427L393.167 133.241C389.661 137.999 385.921 141.163 381.967 142.828L382.744 144.671ZM394.777 134.427C396.602 131.951 398.183 129.265 399.735 126.632L398.011 125.617C396.451 128.266 394.92 130.861 393.167 133.241L394.777 134.427ZM399.729 126.641C401.023 124.494 402.093 122.421 403.434 120.491L401.792 119.349C400.407 121.342 399.216 123.618 398.017 125.608L399.729 126.641ZM403.44 120.483C406.538 115.935 410.204 111.687 414.44 107.741L413.077 106.277C408.737 110.32 404.973 114.68 401.787 119.357L403.44 120.483ZM414.42 107.759C418.77 103.919 423.471 100.618 428.417 97.9703L427.473 96.2071C422.383 98.9325 417.555 102.323 413.096 106.259L414.42 107.759ZM428.432 97.9619C430.138 97.0094 431.965 96.1578 433.831 95.288L432.986 93.4752C431.132 94.3392 429.238 95.2213 427.457 96.2155L428.432 97.9619ZM433.831 95.288C439.382 92.7011 445.27 89.9052 449.466 85.0654L447.954 83.7553C444.082 88.2223 438.596 90.8608 432.986 93.4752L433.831 95.288ZM449.469 85.0619C453.008 80.9412 454.84 75.7688 456.114 71.795L454.209 71.1847C452.939 75.1486 451.204 79.972 447.951 83.7589L449.469 85.0619ZM456.119 71.7775C458.771 62.9475 460.034 53.5139 459.905 43.2597L457.905 43.2848C458.031 53.356 456.792 62.5854 454.204 71.2022L456.119 71.7775ZM459.905 43.2668C459.858 34.8156 458.881 25.7503 457.06 15.2941L455.089 15.6374C456.899 26.0233 457.859 34.972 457.905 43.2778L459.905 43.2668ZM457.06 15.2945C454.931 3.04846 451.635 -10.2512 446.882 -26.1498L444.966 -25.577C449.704 -9.72614 452.979 3.49295 455.089 15.637L457.06 15.2945ZM446.881 -26.1536C444.907 -32.6617 442.943 -38.9472 440.99 -45.0099L439.086 -44.3965C441.036 -38.3454 442.996 -32.071 444.967 -25.5732L446.881 -26.1536ZM440.985 -45.0231C438.275 -53.0506 435.167 -61.7473 430.169 -69.1361L428.513 -68.0156C433.34 -60.8783 436.376 -52.4231 439.09 -44.3833L440.985 -45.0231ZM430.159 -69.1505C428.492 -71.5255 426.46 -74.3231 423.121 -75.9839L422.23 -74.1932C425.065 -72.783 426.845 -70.3904 428.523 -68.0011L430.159 -69.1505ZM423.103 -75.9927C418.868 -77.9935 413.303 -77.5623 408.089 -75.0072L408.969 -73.2112C413.81 -75.5837 418.717 -75.8528 422.248 -74.1844L423.103 -75.9927ZM408.081 -75.0036C406.058 -73.9915 404.05 -72.7524 401.951 -71.1719L403.155 -69.5744C405.162 -71.0861 407.067 -72.26 408.976 -73.2148L408.081 -75.0036ZM401.935 -71.1596C399.642 -69.3586 397.466 -67.4496 395.515 -65.549L396.91 -64.1162C398.811 -65.9668 400.933 -67.8291 403.171 -69.5867L401.935 -71.1596ZM395.518 -65.5516C393.696 -63.7911 391.769 -61.9143 389.843 -60.039L391.239 -58.6061C393.165 -60.482 395.09 -62.3562 396.908 -64.1137L395.518 -65.5516ZM389.803 -59.9968C389.458 -59.6195 389.083 -59.2623 388.677 -58.8767C388.279 -58.4994 387.851 -58.0937 387.451 -57.6548L388.928 -56.3064C389.272 -56.6837 389.648 -57.0409 390.054 -57.4265C390.451 -57.8038 390.879 -58.2095 391.28 -58.6483L389.803 -59.9968ZM387.492 -57.6969C364.304 -35.1029 339.815 -14.1235 314.895 4.75493L316.103 6.3491C341.087 -12.5785 365.639 -33.6119 388.887 -56.2644L387.492 -57.6969ZM314.893 4.75656C311.396 7.42129 307.366 10.467 303.916 13.9781C300.465 17.4899 297.523 21.5362 296.267 26.2391L298.2 26.7552C299.33 22.5219 302.012 18.7696 305.342 15.3799C308.674 11.9895 312.583 9.03072 316.105 6.34746L314.893 4.75656ZM296.262 26.2589C295.773 28.2519 295.621 30.144 295.381 31.9946L297.364 32.2523C297.62 30.281 297.751 28.5846 298.205 26.7354L296.262 26.2589ZM295.373 32.1689C295.408 32.9404 295.265 34.1942 294.999 35.6484L296.966 36.009C297.236 34.5334 297.417 33.0906 297.371 32.078L295.373 32.1689Z" fill="white" mask="url(#path-13-inside-2_90_120)"/>
<path d="M450.566 -36.8019L450.826 -36.8803C450.81 -36.9319 450.795 -36.9835 450.779 -37.0351C448.685 -44.0407 446.476 -51.1513 444.057 -58.0343L443.793 -57.9479M450.566 -36.8019C450.551 -36.8535 450.535 -36.9052 450.52 -36.9568C450.52 -36.957 450.52 -36.9573 450.52 -36.9575C448.424 -43.9626 446.213 -51.0701 443.793 -57.9479M450.566 -36.8019C456.067 -18.5872 459.62 -4.27009 462.148 9.52441C462.148 9.52496 462.148 9.52552 462.148 9.52607C462.159 9.5882 462.171 9.65031 462.182 9.71242L450.826 -36.8796L450.566 -36.8019ZM443.793 -57.9479L444.055 -58.0402C444.039 -58.0872 444.022 -58.1341 444.006 -58.1811C441.027 -67.2958 437.469 -76.9398 432.094 -85.0614C432.08 -85.0827 432.066 -85.1039 432.052 -85.1252C430.252 -87.8368 427.996 -90.7511 424.57 -92.383M443.793 -57.9479C443.777 -57.9952 443.762 -58.0425 443.746 -58.0898C443.746 -58.0918 443.745 -58.0937 443.745 -58.0957C440.768 -67.1907 437.209 -76.8011 431.839 -84.892C431.825 -84.9133 431.811 -84.9345 431.797 -84.9558C430.019 -87.6269 427.794 -90.4829 424.441 -92.1092L424.57 -92.383M424.57 -92.383C424.542 -92.396 424.514 -92.4089 424.486 -92.4217C424.486 -92.4219 424.485 -92.4221 424.485 -92.4224C420.153 -94.4137 414.182 -93.9046 408.426 -91.0892L424.44 -92.11L424.57 -92.383ZM385.619 -71.7251C386.262 -72.3132 386.877 -72.9278 387.491 -73.5424C388.032 -74.0829 388.572 -74.6235 389.133 -75.1459L265.653 56.8762C266.309 56.1961 266.936 55.5298 267.533 54.8761C270.453 51.6724 272.649 48.8132 274.543 45.9677M385.619 -71.7251C385.543 -71.6521 385.468 -71.5791 385.393 -71.5061C385.393 -71.5059 385.393 -71.5058 385.393 -71.5057C384.151 -70.3017 382.907 -69.1023 381.659 -67.9075M385.619 -71.7251L385.637 -71.7052L389.151 -75.1265C388.508 -74.5385 387.893 -73.9238 387.279 -73.3092C386.738 -72.7687 386.198 -72.2282 385.637 -71.7058L385.619 -71.7251ZM381.659 -67.9075C360.788 -48.0617 338.995 -29.3643 316.697 -12.1587M381.659 -67.9075C360.855 -47.988 339.113 -29.3469 316.697 -12.1587M381.659 -67.9075C382.911 -69.0982 384.16 -70.2931 385.406 -71.492L302.585 -1.51869L302.549 -1.56842M316.697 -12.1587C312.009 -8.56454 307.293 -5.03392 302.549 -1.56842M316.697 -12.1587C312.014 -8.54532 307.309 -4.99775 302.585 -1.51916L302.549 -1.56842M302.549 -1.56842C302.466 -1.50634 302.383 -1.4444 302.301 -1.3826C302.301 -1.38249 302.3 -1.38238 302.3 -1.38226C301.846 -1.0419 301.396 -0.705636 300.95 -0.372509C296.823 2.71103 293.055 5.52623 289.837 8.8436C289.762 8.91781 289.687 8.99202 289.613 9.06625C289.613 9.06627 289.613 9.06628 289.613 9.0663C287.506 11.1781 285.796 13.2982 284.485 15.4268M284.485 15.4268C283.112 17.5572 282.109 19.6954 281.506 21.8918L281.718 21.9518M284.485 15.4268C283.15 17.5931 282.228 19.7681 281.718 21.9518M284.485 15.4268C285.844 13.3188 287.566 11.2184 289.624 9.07677L279.996 33.2044M281.718 21.9518L281.504 21.9017C281.467 22.0348 281.432 22.1681 281.399 22.3016C280.882 24.3598 280.638 26.313 280.5 28.1688L280.887 28.2472M281.718 21.9518C281.68 22.0853 281.644 22.2196 281.61 22.3547C281.15 24.1794 281.023 26.1409 280.907 27.9445C280.9 28.0459 280.894 28.1468 280.887 28.2472M280.887 28.2472L280.496 28.2216C280.484 28.3863 280.472 28.5503 280.462 28.7135C280.314 30.2363 280.167 31.7591 279.914 33.185C279.913 33.1861 279.913 33.1872 279.913 33.1883C279.905 33.2326 279.897 33.2768 279.889 33.321M280.887 28.2472C280.854 28.4117 280.823 28.5743 280.792 28.7351C280.792 28.7385 280.791 28.7419 280.791 28.7453C280.676 29.3615 280.582 29.9519 280.49 30.527C280.344 31.4444 280.205 32.3228 279.996 33.2044M279.889 33.321C279.187 37.3359 277.506 41.5049 274.629 45.8378C274.629 45.8379 274.629 45.8379 274.629 45.838C274.6 45.8812 274.572 45.9245 274.543 45.9677M279.889 33.321L279.97 33.3357L279.996 33.2044M279.889 33.321L279.97 33.3351C279.978 33.2915 279.987 33.248 279.996 33.2044M274.543 45.9677L274.563 45.9815L274.649 45.8511C274.621 45.8945 274.592 45.9379 274.563 45.9814L274.543 45.9677ZM391.987 -77.8815C391.104 -77.0312 390.221 -76.1809 389.364 -75.3597L394.397 -80.1702L394.382 -80.1851C393.597 -79.432 392.792 -78.6567 391.987 -77.8815ZM401.453 -86.5628C399.057 -84.6022 396.679 -82.4435 394.61 -80.4034L408.162 -90.9602C405.971 -89.8764 403.976 -88.583 401.695 -86.7601C401.615 -86.6947 401.534 -86.6291 401.454 -86.5633C401.454 -86.5631 401.454 -86.5629 401.453 -86.5628Z" fill="white" stroke="white"/>
<path d="M472.328 38.7541C472.328 38.7543 472.328 38.7546 472.328 38.7549L472.22 38.7552L472.328 38.7541ZM455.302 -47.7085L455.431 -47.7505L455.301 -47.7111C455.301 -47.7102 455.302 -47.7094 455.302 -47.7085ZM467.529 74.19L467.463 74.1704L467.529 74.19ZM447.664 -71.0861L447.795 -71.1309C447.795 -71.1311 447.795 -71.1313 447.795 -71.1314L447.664 -71.0861Z" fill="white" stroke="white"/>
<path d="M368.115 179.485C362.155 181.097 355.53 180.393 349.376 177.768C343.106 175.036 338.103 170.683 333.439 166.425C328.776 162.168 324.209 157.571 320.235 153.729C316.494 150.1 312.976 146.461 309.458 142.822C287.788 120.902 267.41 100.375 239.8 90.3467C239.004 90.0477 238.325 89.8551 237.529 89.5561C232.415 87.6659 227.194 85.8923 223.443 82.0404C215.231 73.4749 222.397 63.9858 229.665 56.7269C236.923 49.245 245.524 39.3554 247.576 27.9761C247.824 26.0652 248.072 24.1543 248.204 22.1369C248.422 19.557 248.523 16.8706 249.293 14.1537C252.622 1.37531 265.511 -7.59215 275.901 -14.9932C312.176 -40.4458 346.96 -69.1827 379.615 -100.504C382.403 -103.09 384.967 -105.665 387.638 -108.356L390.851 -111.408C393.31 -113.867 396.416 -116.802 399.65 -119.407C402.564 -121.663 405.276 -123.462 407.998 -125.039C415.311 -128.836 422.99 -129.521 428.358 -126.972C432.581 -125.041 435.44 -121.148 437.599 -117.894C443.971 -108.016 448.174 -96.6981 452.174 -84.9239C455.15 -76.0083 458.116 -67.3158 460.615 -59.0489C467.556 -36.6814 472.15 -19.2354 475.375 -2.39754C479.168 17.0963 483.068 46.3067 474.438 75.1937C472.791 80.7441 470.313 87.6731 465.311 93.1527C459.467 99.7881 451.241 103.18 443.354 106.667C440.612 107.798 437.764 109.045 435.138 110.282C420.82 117.303 408.052 128.947 399.827 142.172C397.845 145.279 396.203 148.483 394.561 151.686C392.717 155.346 390.649 159.016 388.465 162.579C383.873 169.716 378.298 174.887 372.271 177.508C371.612 177.761 370.954 178.015 370.295 178.268C369.55 179.084 368.891 179.338 368.115 179.485ZM248.807 28.0317C246.659 39.7507 237.962 49.9799 230.481 57.472C223.224 64.9539 216.792 73.4038 224.188 81.2242C227.706 84.8633 232.704 86.6471 237.585 88.3244C238.381 88.6234 239.177 88.9224 239.856 89.115C267.689 99.1336 288.193 119.99 309.863 141.91C313.381 145.549 317.122 149.178 320.64 152.817C324.614 156.659 329.181 161.256 333.845 165.513C338.392 169.664 343.395 174.017 349.548 176.643C356.158 179.47 363.548 179.804 369.712 177.736C370.371 177.482 371.03 177.229 371.688 176.975C377.492 174.365 382.854 169.427 387.339 162.407C389.64 158.95 391.591 155.174 393.436 151.514C395.078 148.31 396.72 145.107 398.702 142C406.917 128.552 420.014 116.781 434.439 109.643C437.17 108.29 439.913 107.159 442.761 105.912C450.541 102.541 458.651 99.043 464.398 92.7473C469.177 87.2779 471.666 80.5718 473.323 75.2445C481.963 46.5805 478.073 17.5931 474.28 -1.90071C471.055 -18.7386 466.578 -36.0782 459.521 -58.5521C456.915 -66.7024 454.172 -75.4051 451.079 -84.427C447.196 -96.0948 442.993 -107.413 436.621 -117.291C434.462 -120.545 431.729 -124.108 427.847 -125.943C422.595 -128.385 415.479 -127.614 408.378 -124.051C405.646 -122.697 402.934 -120.898 400.243 -118.652C397.116 -116.163 393.903 -113.111 391.551 -110.769L388.338 -107.718C385.667 -105.026 382.985 -102.558 380.315 -99.8659C347.659 -68.5441 312.769 -39.6906 276.494 -14.238C266.444 -6.74068 253.661 2.11019 250.428 14.549C249.765 17.1492 249.547 19.7292 249.329 22.3092C249.304 24.2099 249.056 26.1208 248.807 28.0317Z" fill="white"/>
</g>
</g>
<defs>
<clipPath id="clip0_90_120">
<rect width="360" height="120" rx="36" fill="white"/>
</clipPath>
<clipPath id="clip1_90_120">
<rect width="292.993" height="216.43" fill="white" transform="translate(-28.1597 24.5837) rotate(28.6848)"/>
</clipPath>
<clipPath id="clip2_90_120">
<rect width="292.993" height="216.43" fill="white" transform="translate(201.291 61.818) rotate(-47.6069)"/>
</clipPath>
</defs>
</svg>
