<svg width="25" height="24" viewBox="0 0 25 24" fill="none" xmlns="http://www.w3.org/2000/svg">
<path d="M2.79001 7.78001V17.51C2.79001 19.41 4.14001 20.19 5.78001 19.25L8.13001 17.91C8.64001 17.62 9.49001 17.59 10.02 17.86L15.27 20.49C15.8 20.75 16.65 20.73 17.16 20.44L21.49 17.96C22.04 17.64 22.5 16.86 22.5 16.22V6.49001C22.5 4.59001 21.15 3.81001 19.51 4.75001L17.16 6.09001C16.65 6.38001 15.8 6.41001 15.27 6.14001L10.02 3.52001C9.49001 3.26001 8.64001 3.28001 8.13001 3.57001L3.80001 6.05001C3.24001 6.37001 2.79001 7.15001 2.79001 7.78001Z" stroke="#00091F" stroke-width="1.5" stroke-linecap="round" stroke-linejoin="round"/>
<path d="M9.06 4V17" stroke="#00091F" stroke-width="1.5" stroke-linecap="round" stroke-linejoin="round"/>
<path d="M16.23 6.62V20" stroke="#00091F" stroke-width="1.5" stroke-linecap="round" stroke-linejoin="round"/>
</svg>
